<?xml version="1.0" encoding="UTF-8"?>
<!DOCTYPE svg PUBLIC "-//W3C//DTD SVG 1.1//EN" "http://www.w3.org/Graphics/SVG/1.1/DTD/svg11.dtd">
<!-- Creator: CorelDRAW 2019 (64-Bit) -->
<svg xmlns="http://www.w3.org/2000/svg" xml:space="preserve" width="75.3469mm" height="25.5755mm" version="1.1" style="shape-rendering:geometricPrecision; text-rendering:geometricPrecision; image-rendering:optimizeQuality; fill-rule:evenodd; clip-rule:evenodd"
viewBox="0 0 2127.34 722.1"
 xmlns:xlink="http://www.w3.org/1999/xlink">
 <defs>
  <style type="text/css">
   <![CDATA[
    .fil0 {fill:#E6E7E8;fill-rule:nonzero}
   ]]>
  </style>
 </defs>
 <g id="Capa_x0020_1">
  <metadata id="CorelCorpID_0Corel-Layer"/>
  <path class="fil0" d="M538.49 285.94c-2.54,79.35 -29.15,143.93 -79.59,193.77 -50.32,49.84 -113.82,74.75 -190.38,74.75 -26.85,0 -53.1,-3.87 -78.62,-11.49 -25.52,-7.74 -49.11,-18.87 -70.88,-33.51 -37.49,-25.28 -66.76,-57.45 -87.69,-96.52 -20.92,-39.07 -31.33,-81.16 -31.33,-126.28 0,-26.49 3.87,-52.25 11.49,-77.41 7.74,-25.16 19.11,-49.23 34.23,-72.09 25.04,-37.62 57.33,-67.01 96.88,-88.42 39.67,-21.41 81.64,-32.05 126.04,-32.05 68.09,0 126.16,20.2 174.17,60.72 48.14,40.52 78.62,94.95 91.32,163.41l-158.21 10.28c-11.86,-24.56 -26.25,-42.94 -43.42,-55.03 -17.05,-12.22 -37.01,-18.26 -59.63,-18.26 -29.63,0 -55.03,10.64 -76.2,31.93 -21.29,21.29 -31.93,46.69 -31.93,76.2 0,29.75 10.52,55.16 31.69,76.08 21.17,20.92 46.69,31.33 76.44,31.33 30.24,0 54.55,-9.19 73.06,-27.7 18.39,-18.38 29.88,-44.99 34.35,-79.71l158.21 0zm377.5 43.66c0,25.28 -0.73,44.39 -2.18,57.57 -1.33,13.06 -3.63,25.52 -6.65,37.37 -10.4,41 -29.39,72.94 -56.85,95.8 -27.58,22.74 -61.08,34.11 -100.51,34.11 -32.66,0 -62.17,-8.71 -88.66,-26.25 -26.37,-17.42 -45.96,-41.12 -58.78,-71.12 -6.77,-16.08 -11.73,-32.54 -14.88,-49.35 -3.02,-16.93 -4.59,-38.34 -4.59,-64.35l0 -13.79 0 -154.7 141.51 0 0 174.17c0,19.72 2.06,33.02 6.17,40.16 4.11,7.14 11.01,10.64 20.68,10.64 9.68,0 16.57,-3.63 20.68,-11.01 4.11,-7.38 6.17,-20.56 6.17,-39.8l0 -174.17 137.89 0 0 154.7zm194.61 214.69l-137.89 0 0 -517.44 137.89 0 0 517.44zm430.36 177.8l-137.89 0 0 -325.85c0,-35.08 -4.24,-59.51 -12.82,-73.42 -8.46,-13.91 -22.5,-20.92 -42.09,-20.92 -15,0 -27.7,5.2 -38.22,15.72 -10.52,10.52 -15.72,23.22 -15.72,38.1 0,15.36 5.08,28.18 15.36,38.34 10.28,10.16 22.98,15.24 38.34,15.24 3.75,0 7.86,-0.49 12.34,-1.57 4.48,-1.09 9.56,-2.66 15.24,-4.84l0 143.57 -2.54 0.36c-12.7,0.73 -21.77,1.09 -27.21,1.09 -53.34,0 -98.45,-18.5 -135.47,-55.64 -36.89,-37.13 -55.4,-82.61 -55.4,-136.44 0,-25.52 4.72,-49.95 14.15,-73.06 9.44,-23.22 23.1,-43.66 41.13,-61.32 18.14,-18.5 38.95,-32.54 62.29,-42.21 23.47,-9.68 48.14,-14.52 74.02,-14.52 38.34,0 72.69,9.55 103.05,28.54 30.48,18.99 53.46,45.36 68.82,78.86 7.74,17.66 13.43,35.92 17.17,54.79 3.63,18.75 5.44,42.09 5.44,69.91l0 26.97 0 298.28zm390.32 -392.5c0,25.28 -0.73,44.39 -2.18,57.57 -1.33,13.06 -3.63,25.52 -6.65,37.37 -10.4,41 -29.39,72.94 -56.85,95.8 -27.58,22.74 -61.08,34.11 -100.51,34.11 -32.66,0 -62.17,-8.71 -88.66,-26.25 -26.37,-17.42 -45.96,-41.12 -58.78,-71.12 -6.77,-16.08 -11.73,-32.54 -14.88,-49.35 -3.02,-16.93 -4.59,-38.34 -4.59,-64.35l0 -13.79 0 -154.7 141.51 0 0 174.17c0,19.72 2.06,33.02 6.17,40.16 4.11,7.14 11.01,10.64 20.68,10.64 9.68,0 16.57,-3.63 20.68,-11.01 4.11,-7.38 6.17,-20.56 6.17,-39.8l0 -174.17 137.89 0 0 154.7zm194.61 214.69l-137.89 0 0 -369.39 137.89 0 0 369.39zm-138.49 -473.78c0,-19.59 6.77,-36.29 20.32,-49.95 13.55,-13.67 30,-20.56 49.11,-20.56 19.59,0 36.29,6.89 49.95,20.56 13.67,13.67 20.56,30.36 20.56,49.95 0,19.23 -6.89,35.56 -20.56,49.11 -13.67,13.67 -30.36,20.44 -49.95,20.44 -19.11,0 -35.56,-6.77 -49.11,-20.44 -13.55,-13.55 -20.32,-29.88 -20.32,-49.11z"/>
 </g>
</svg>
