<?xml version="1.0" encoding="UTF-8"?>
<!DOCTYPE svg PUBLIC "-//W3C//DTD SVG 1.1//EN" "http://www.w3.org/Graphics/SVG/1.1/DTD/svg11.dtd">
<!-- Creator: CorelDRAW 2019 (64-Bit) -->
<svg xmlns="http://www.w3.org/2000/svg" xml:space="preserve" width="109.379mm" height="11.9985mm" version="1.1" style="shape-rendering:geometricPrecision; text-rendering:geometricPrecision; image-rendering:optimizeQuality; fill-rule:evenodd; clip-rule:evenodd"
viewBox="0 0 4613.65 506.1"
 xmlns:xlink="http://www.w3.org/1999/xlink">
 <defs>
  <style type="text/css">
   <![CDATA[
    .fil0 {fill:#E6E7E8;fill-rule:nonzero}
   ]]>
  </style>
 </defs>
 <g id="Capa_x0020_1">
  <metadata id="CorelCorpID_0Corel-Layer"/>
  <path class="fil0" d="M224.65 506.1c-67.46,0 -121.69,-22.27 -162.89,-66.7 -41.21,-44.44 -61.76,-103.07 -61.76,-176.02 0,-71.23 21.31,-129.54 63.91,-174.83 42.72,-45.29 96.62,-67.89 162.03,-67.89 38.41,0 70.9,7.32 97.47,22.06 26.57,14.74 39.81,31.85 39.81,51.43 0,12.59 -4.41,23.56 -13.24,33.03 -8.82,9.47 -19.15,14.2 -31.2,14.2 -6.67,0 -20.33,-3.01 -40.78,-9.04 -20.55,-6.03 -37.65,-9.04 -51.54,-9.04 -34.21,0 -61.65,12.91 -82.09,38.62 -20.55,25.82 -30.77,60.47 -30.77,104.04 0,42.61 10.44,76.5 31.42,101.35 20.87,24.96 49.06,37.44 84.56,37.44 16.46,0 35.07,-3.98 56.16,-11.94 20.98,-7.96 34.86,-11.94 41.53,-11.94 10.76,0 20.44,4.63 29.05,13.88 8.61,9.25 12.91,19.9 12.91,31.85 0,21.63 -13.88,40.35 -41.75,56.05 -27.86,15.6 -62.08,23.46 -102.85,23.46zm178.81 -152.35l0 -135.45c0,-24.96 4.2,-43.47 12.59,-55.62 8.39,-12.05 21.2,-18.08 38.41,-18.08 17,0 29.59,6.03 37.87,18.08 8.28,12.16 12.48,30.66 12.48,55.62l0 114.69c0,27.11 4.09,46.26 12.27,57.45 8.17,11.3 21.52,16.89 40.02,16.89 18.5,0 31.85,-5.59 40.02,-16.89 8.17,-11.19 12.27,-30.34 12.27,-57.45l0 -114.69c0,-24.96 4.19,-43.47 12.48,-55.62 8.28,-12.05 21.2,-18.08 38.62,-18.08 17.11,0 29.69,6.03 37.98,17.97 8.18,11.94 12.27,30.56 12.27,55.73l0 135.45c0,48.31 -13.13,85.32 -39.38,110.82 -26.25,25.5 -64.34,38.3 -114.05,38.3 -49.82,0 -87.9,-12.81 -114.26,-38.3 -26.36,-25.5 -39.59,-62.51 -39.59,-110.82zm473.39 148.47c-36.26,0 -66.38,-7.21 -90.27,-21.74 -23.78,-14.52 -35.72,-32.49 -35.72,-53.9 0,-12.8 3.77,-23.56 11.3,-32.38 7.64,-8.82 16.78,-13.24 27.43,-13.24 10.76,0 26.47,4.95 47.34,14.74 20.77,9.9 36.47,14.85 46.91,14.85 8.5,0 15.28,-2.05 20.55,-6.03 5.27,-3.98 7.85,-8.93 7.85,-14.74 0,-10.11 -16.35,-21.63 -49.06,-34.64l-6.67 -2.59c-37.12,-15.49 -62.51,-30.88 -76.17,-46.15 -13.66,-15.28 -20.44,-34.54 -20.44,-57.88 0,-31.31 12.05,-57.45 36.15,-78.32 23.99,-20.98 54.44,-31.42 91.24,-31.42 33.25,0 61.44,7.1 84.57,21.2 23.13,14.09 34.64,30.66 34.64,49.82 0,12.05 -4.09,22.16 -12.16,30.34 -8.07,8.17 -18.07,12.26 -29.8,12.26 -7.85,0 -21.09,-4.09 -39.7,-12.26 -18.61,-8.18 -32.81,-12.27 -42.5,-12.27 -6.88,0 -12.48,1.61 -16.68,4.84 -4.19,3.33 -6.35,7.53 -6.35,12.8 0,9.47 13.56,19.26 40.56,29.59 12.59,4.84 22.59,8.93 30.02,12.27 30.45,13.67 52.07,28.08 64.98,43.36 12.91,15.17 19.37,33.68 19.37,55.3 0,33.14 -13.02,60.79 -38.95,82.95 -25.93,22.16 -58.74,33.25 -98.44,33.25zm163.21 -181.61c0,-53.58 16.03,-97.04 48.2,-130.4 32.17,-33.46 74.34,-50.14 126.63,-50.14 33.78,0 61.22,6.02 82.2,18.07 20.98,12.16 31.53,27.87 31.53,47.23 0,12.37 -3.98,22.7 -11.95,30.88 -8.07,8.18 -18.07,12.27 -30.23,12.27 -5.27,0 -15.92,-2.58 -31.85,-7.74 -16.03,-5.17 -29.16,-7.75 -39.7,-7.75 -20.98,0 -37.98,7.85 -50.89,23.67 -12.91,15.81 -19.37,36.47 -19.37,62.19 0,26.68 6.56,47.66 19.8,62.94 13.23,15.28 31.31,22.92 54.23,22.92 11.08,0 24.42,-2.58 39.81,-7.74 15.49,-5.17 25.5,-7.75 30.13,-7.75 11.08,0 20.44,4.2 28.08,12.7 7.53,8.5 11.3,18.93 11.3,31.31 0,18.72 -11.41,34.64 -34.32,47.87 -22.92,13.24 -51.21,19.8 -85.1,19.8 -49.92,0 -90.48,-16.68 -121.68,-49.92 -31.21,-33.35 -46.8,-76.82 -46.8,-130.4zm411.96 -1.19c0,26.04 6.24,46.91 18.61,62.83 12.37,15.82 28.51,23.78 48.52,23.78 20.01,0 36.15,-7.96 48.52,-23.99 12.37,-15.92 18.61,-36.79 18.61,-62.62 0,-25.07 -6.35,-45.4 -19.04,-61.33 -12.7,-15.81 -28.73,-23.78 -48.09,-23.78 -19.8,0 -35.83,7.85 -48.41,23.67 -12.48,15.71 -18.72,36.15 -18.72,61.43zm-105.22 1.19c0,-52.94 16.25,-96.4 48.63,-130.62 32.49,-34.1 73.7,-51.21 123.73,-51.21 50.25,0 91.35,17 123.51,51.11 32.17,34 48.2,77.57 48.2,130.72 0,53.26 -16.03,96.83 -48.2,131.04 -32.17,34.11 -73.27,51.22 -123.51,51.22 -50.03,0 -91.24,-17.11 -123.73,-51.43 -32.38,-34.21 -48.63,-77.78 -48.63,-130.83zm911.6 29.8c0,45.94 -16.35,83.28 -49.06,111.68 -32.6,28.51 -75.63,42.71 -129.11,42.71 -40.99,0 -75.96,-7.32 -105.01,-22.06 -28.94,-14.74 -43.47,-31.96 -43.47,-51.75 0,-13.99 4.63,-25.39 13.99,-34 9.36,-8.61 21.95,-12.91 37.65,-12.91 7.85,0 24.1,3.87 48.95,11.62 24.75,7.74 45.62,11.62 62.73,11.62 14.63,0 27,-4.52 36.79,-13.55 9.9,-9.04 14.85,-20.23 14.85,-33.68 0,-14.53 -5.06,-26.14 -15.17,-34.97 -10.11,-8.82 -31.74,-18.29 -64.99,-28.29 -48.2,-14.31 -81.77,-31.31 -100.92,-50.89 -19.15,-19.69 -28.73,-46.16 -28.73,-79.29 0,-42.71 15.39,-77.57 46.26,-104.68 30.77,-27.11 70.91,-40.67 120.29,-40.67 36.37,0 66.38,6.46 89.95,19.37 23.56,13.02 35.29,29.16 35.29,48.41 0,13.99 -4.19,24.85 -12.48,32.71 -8.28,7.85 -19.8,11.84 -34.54,11.84 -8.18,0 -21.52,-2.69 -40.02,-8.07 -18.5,-5.38 -32.49,-8.07 -41.96,-8.07 -15.6,0 -27.97,3.66 -37.22,10.87 -9.25,7.31 -13.88,16.78 -13.88,28.51 0,18.72 20.44,34.54 61.22,47.34 9.47,2.91 16.78,5.27 22.06,6.89 44,14.74 76.07,33.24 96.29,55.62 20.12,22.38 30.23,50.25 30.23,83.7zm132.88 -30.99c0,26.04 6.24,46.91 18.61,62.83 12.37,15.82 28.51,23.78 48.52,23.78 20.01,0 36.15,-7.96 48.52,-23.99 12.37,-15.92 18.61,-36.79 18.61,-62.62 0,-25.07 -6.35,-45.4 -19.04,-61.33 -12.7,-15.81 -28.73,-23.78 -48.09,-23.78 -19.8,0 -35.83,7.85 -48.41,23.67 -12.48,15.71 -18.72,36.15 -18.72,61.43zm-105.22 1.19c0,-52.94 16.25,-96.4 48.63,-130.62 32.49,-34.1 73.7,-51.21 123.73,-51.21 50.25,0 91.35,17 123.51,51.11 32.17,34 48.2,77.57 48.2,130.72 0,53.26 -16.03,96.83 -48.2,131.04 -32.17,34.11 -73.27,51.22 -123.51,51.22 -50.03,0 -91.24,-17.11 -123.73,-51.43 -32.38,-34.21 -48.63,-77.78 -48.63,-130.83zm397.65 -246.27c0,-25.17 4.2,-43.9 12.59,-56.05 8.5,-12.16 21.3,-18.29 38.51,-18.29 16.89,0 29.48,6.13 37.76,18.4 8.28,12.37 12.48,30.99 12.48,55.94l0 348.59c0,25.28 -4.09,43.9 -12.27,56.05 -8.28,12.05 -20.87,18.07 -37.98,18.07 -17.21,0 -30.02,-6.13 -38.51,-18.29 -8.39,-12.16 -12.59,-30.77 -12.59,-55.84l0 -348.59zm172.25 279.41l0 -135.45c0,-24.96 4.2,-43.47 12.59,-55.62 8.39,-12.05 21.2,-18.08 38.41,-18.08 17,0 29.59,6.03 37.87,18.08 8.28,12.16 12.48,30.66 12.48,55.62l0 114.69c0,27.11 4.09,46.26 12.27,57.45 8.17,11.3 21.52,16.89 40.02,16.89 18.5,0 31.85,-5.59 40.02,-16.89 8.17,-11.19 12.27,-30.34 12.27,-57.45l0 -114.69c0,-24.96 4.19,-43.47 12.48,-55.62 8.28,-12.05 21.2,-18.08 38.62,-18.08 17.11,0 29.69,6.03 37.98,17.97 8.18,11.94 12.27,30.56 12.27,55.73l0 135.45c0,48.31 -13.13,85.32 -39.38,110.82 -26.25,25.5 -64.34,38.3 -114.05,38.3 -49.82,0 -87.9,-12.81 -114.26,-38.3 -26.36,-25.5 -39.59,-62.51 -39.59,-110.82zm396.47 -111.03l-3.77 0c-17.97,0 -31.96,-3.98 -42.18,-11.84 -10.22,-7.85 -15.38,-18.5 -15.38,-31.96 0,-13.77 5.16,-24.53 15.38,-32.06 10.22,-7.53 25.5,-11.94 45.94,-13.23l0 -44.54c0,-25.07 4.19,-43.68 12.59,-55.95 8.39,-12.16 21.2,-18.29 38.41,-18.29 17,0 29.59,6.13 37.87,18.29 8.28,12.27 12.48,30.88 12.48,55.95l0 44.54 8.82 0c20.23,0 35.93,3.98 47.23,12.05 11.3,7.96 16.89,19.04 16.89,33.14 0,14.52 -5.38,25.5 -16.25,32.82 -10.87,7.42 -27,11.08 -48.52,11.08l-8.18 0 0 180.32c0,25.18 -4.09,43.79 -12.27,55.95 -8.17,12.05 -20.87,18.07 -38.08,18.07 -17.21,0 -30.02,-6.13 -38.41,-18.29 -8.39,-12.16 -12.59,-30.77 -12.59,-55.73l0 -180.32zm189.79 -183.87c0,-16.14 5.81,-30.02 17.32,-41.53 11.51,-11.52 25.39,-17.32 41.53,-17.32 16.03,0 29.69,5.81 40.99,17.32 11.3,11.51 17,25.39 17,41.53 0,16.46 -5.6,30.23 -16.89,41.64 -11.19,11.3 -24.85,17 -41.1,17 -16.57,0 -30.56,-5.7 -41.85,-17 -11.3,-11.4 -17,-25.17 -17,-41.64zm109.1 364.08c0,25.28 -4.09,43.9 -12.27,56.05 -8.28,12.05 -20.87,18.07 -37.98,18.07 -17.21,0 -30.02,-6.13 -38.51,-18.29 -8.39,-12.16 -12.59,-30.77 -12.59,-55.84l0 -204.63c0,-24.96 4.2,-43.47 12.48,-55.62 8.28,-12.05 21.2,-18.08 38.62,-18.08 17.11,0 29.69,6.03 37.98,18.08 8.18,12.16 12.27,30.66 12.27,55.62l0 204.63zm158.05 -103.5c0,26.04 6.24,46.91 18.61,62.83 12.37,15.82 28.51,23.78 48.52,23.78 20.01,0 36.15,-7.96 48.52,-23.99 12.37,-15.92 18.61,-36.79 18.61,-62.62 0,-25.07 -6.35,-45.4 -19.04,-61.33 -12.7,-15.81 -28.73,-23.78 -48.09,-23.78 -19.8,0 -35.83,7.85 -48.41,23.67 -12.48,15.71 -18.72,36.15 -18.72,61.43zm-105.22 1.19c0,-52.94 16.25,-96.4 48.63,-130.62 32.49,-34.1 73.7,-51.21 123.73,-51.21 50.25,0 91.35,17 123.51,51.11 32.17,34 48.2,77.57 48.2,130.72 0,53.26 -16.03,96.83 -48.2,131.04 -32.17,34.11 -73.27,51.22 -123.51,51.22 -50.03,0 -91.24,-17.11 -123.73,-51.43 -32.38,-34.21 -48.63,-77.78 -48.63,-130.83zm394.42 102.42l0 -204.63c0,-24.96 4.2,-43.57 12.48,-55.62 8.28,-12.16 21.09,-18.18 38.41,-18.18 10.22,0 19.47,2.69 27.43,8.07 7.96,5.38 15.06,13.45 21.2,24.42 10.87,-12.05 23.46,-20.76 37.76,-26.25 14.31,-5.49 31.63,-8.18 51.97,-8.18 40.13,0 70.8,11.51 91.99,34.43 21.19,22.92 31.85,56.27 31.85,99.95l0 146c0,24.96 -4.2,43.58 -12.59,55.73 -8.39,12.16 -21.2,18.29 -38.41,18.29 -17.21,0 -30.02,-6.13 -38.41,-18.29 -8.39,-12.16 -12.59,-30.77 -12.59,-55.73l0 -115.12c0,-28.29 -4.3,-48.52 -12.8,-60.68 -8.5,-12.05 -22.49,-18.07 -42.07,-18.07 -18.5,0 -32.17,6.24 -40.99,18.72 -8.82,12.48 -13.23,32.06 -13.23,58.74l0 116.41c0,24.96 -4.2,43.58 -12.59,55.73 -8.5,12.16 -21.31,18.29 -38.52,18.29 -17.32,0 -30.13,-6.13 -38.41,-18.29 -8.28,-12.16 -12.48,-30.77 -12.48,-55.73zm477.7 79.19c-36.26,0 -66.38,-7.21 -90.27,-21.74 -23.78,-14.52 -35.72,-32.49 -35.72,-53.9 0,-12.8 3.77,-23.56 11.3,-32.38 7.64,-8.82 16.78,-13.24 27.43,-13.24 10.76,0 26.47,4.95 47.34,14.74 20.77,9.9 36.47,14.85 46.91,14.85 8.5,0 15.28,-2.05 20.55,-6.03 5.27,-3.98 7.85,-8.93 7.85,-14.74 0,-10.11 -16.35,-21.63 -49.06,-34.64l-6.67 -2.59c-37.12,-15.49 -62.51,-30.88 -76.17,-46.15 -13.66,-15.28 -20.44,-34.54 -20.44,-57.88 0,-31.31 12.05,-57.45 36.15,-78.32 23.99,-20.98 54.44,-31.42 91.24,-31.42 33.25,0 61.44,7.1 84.57,21.2 23.13,14.09 34.64,30.66 34.64,49.82 0,12.05 -4.09,22.16 -12.16,30.34 -8.07,8.17 -18.07,12.26 -29.8,12.26 -7.85,0 -21.09,-4.09 -39.7,-12.26 -18.61,-8.18 -32.81,-12.27 -42.5,-12.27 -6.88,0 -12.48,1.61 -16.68,4.84 -4.19,3.33 -6.35,7.53 -6.35,12.8 0,9.47 13.56,19.26 40.56,29.59 12.59,4.84 22.59,8.93 30.02,12.27 30.45,13.67 52.07,28.08 64.98,43.36 12.91,15.17 19.37,33.68 19.37,55.3 0,33.14 -13.02,60.79 -38.95,82.95 -25.93,22.16 -58.74,33.25 -98.44,33.25z"/>
 </g>
</svg>
