<?xml version="1.0" encoding="UTF-8"?>
<!DOCTYPE svg PUBLIC "-//W3C//DTD SVG 1.1//EN" "http://www.w3.org/Graphics/SVG/1.1/DTD/svg11.dtd">
<!-- Creator: CorelDRAW 2019 (64-Bit) -->
<svg xmlns="http://www.w3.org/2000/svg" xml:space="preserve" width="97.252mm" height="19.4371mm" version="1.1" style="shape-rendering:geometricPrecision; text-rendering:geometricPrecision; image-rendering:optimizeQuality; fill-rule:evenodd; clip-rule:evenodd"
viewBox="0 0 3558.97 711.31"
 xmlns:xlink="http://www.w3.org/1999/xlink">
 <defs>
  <style type="text/css">
   <![CDATA[
    .fil0 {fill:#E6E7E8;fill-rule:nonzero}
   ]]>
  </style>
 </defs>
 <g id="Capa_x0020_1">
  <metadata id="CorelCorpID_0Corel-Layer"/>
  <path class="fil0" d="M413.57 510.39c-2.86,59.92 -19.45,106.39 -50.05,139.43 -30.6,33.03 -72.22,49.48 -124.7,49.48 -58.06,0 -112.4,-28.03 -163.02,-84.09 -50.48,-56.06 -75.79,-117.83 -75.79,-185.48 0,-41.9 11.44,-89.09 34.18,-141.72 22.74,-52.48 53.06,-94.67 91.1,-126.27 37.89,-31.75 79.65,-47.62 125.27,-47.62 42.33,0 76.37,11.15 101.68,33.32 25.45,22.31 38.18,46.9 38.18,74.08 0,26.03 -12.01,49.48 -36.18,70.5 -24.17,21.02 -50.34,31.46 -78.51,31.46 -16.73,0 -33.61,-6.58 -50.48,-19.73 -16.87,-13.16 -25.31,-29.32 -25.31,-48.62 0,-18.3 5.72,-32.46 17.02,-42.19 11.3,-9.87 25.46,-14.73 42.47,-14.73 12.59,0 23.74,4.01 33.32,11.87 9.58,8.01 14.44,16.02 14.44,24.02 0,13.16 -2.86,23.88 -8.58,32.17 -5.86,8.44 -12.58,12.59 -20.45,12.59 -9.01,0 -15.3,-4.29 -19.02,-12.87 5.58,0 12.16,-2.57 19.74,-7.58 7.44,-5.15 11.15,-10.15 11.15,-15.02 0,-17.59 -5.29,-26.31 -16.02,-26.31 -12.59,0 -24.45,5 -35.32,14.87 -11.01,10.01 -16.45,21.73 -16.45,35.18 0,9.44 5.43,19.3 16.45,29.6 10.87,10.44 23.17,15.59 36.9,15.59 19.02,0 35.18,-9.44 48.48,-28.17 13.3,-18.88 20.02,-39.9 20.02,-63.21 0,-23.6 -8.44,-44.91 -25.17,-63.78 -16.73,-19.02 -39.33,-28.46 -67.5,-28.46 -58.78,0 -105.54,25.6 -140.15,76.65 -34.75,51.05 -52.05,113.69 -52.05,187.91 0,80.8 19.87,148.58 59.77,203.35 39.76,54.77 88.24,82.09 145.15,82.09 34.75,0 61.06,-10.58 79.23,-31.75 18.16,-21.02 27.31,-48.48 27.31,-82.37 0,-12.3 -1.15,-31.46 -3.43,-57.49l46.33 3.29zm421.29 167.46c-32.17,9.15 -58.2,18.59 -78.08,28.32l-9.58 -98.96c-35.18,51.05 -77.37,76.65 -126.85,76.65 -37.61,0 -72.22,-15.02 -103.68,-45.05 -31.6,-30.17 -47.34,-66.64 -47.34,-109.68 0,-17.73 5.15,-37.33 15.45,-58.78 10.29,-21.59 22.17,-38.9 35.32,-52.2 13.3,-13.3 24.74,-28.46 34.32,-45.62 9.58,-17.02 14.44,-30.46 14.44,-40.19 0,-29.89 -12.73,-44.9 -38.18,-44.9 -11.01,0 -21.59,3.14 -31.6,9.58 -10.15,6.43 -15.16,14.3 -15.16,23.74 0,6.43 2.57,12.01 7.72,16.87 5.15,4.86 10.73,7.29 16.73,7.29 7.01,0 11.44,-0.71 13.16,-2 1.86,-1.43 2.72,-3.58 2.72,-6.72 0,-6.87 -5.72,-11.44 -17.16,-13.58 5.72,-6.87 10.44,-10.3 14.01,-10.3 5.01,0 9.44,2.29 13.45,6.87 4,4.72 6.01,10.01 6.01,16.3 0,9.15 -3.86,17.73 -11.44,25.74 -7.58,8.01 -15.88,12.01 -25.03,12.01 -8.58,0 -16.45,-4.29 -23.74,-12.73 -7.29,-8.58 -11.01,-17.45 -11.01,-26.74 0,-17.31 6.44,-34.04 19.16,-50.34 12.72,-16.16 26.17,-24.31 40.61,-24.31 15.73,0 28.74,6.72 39.04,20.02 10.15,13.3 15.3,29.32 15.3,48.05 0,25.74 -6.87,50.63 -20.45,74.79 -29.89,52.91 -44.76,93.95 -44.76,123.13 0,43.33 10.44,77.51 31.18,102.53 20.73,24.88 48.76,37.32 83.94,37.32 43.04,0 79.8,-28.88 110.54,-86.66 -10.01,-89.09 -24.6,-177.18 -43.76,-264.27l-44.62 2.58 1.72 -18.02c49.62,-0.86 96.1,-8.58 139.14,-23.17l4.15 17.16 -42.9 11.73c0,94.95 5.15,219.09 15.45,372.67 20.02,-4.15 38.75,-10.44 55.91,-18.88l5.86 19.73zm121.7 -61.78c-12.01,-11.44 -22.17,-17.16 -30.75,-17.16 -4.72,0 -10.44,3.72 -17.3,11.3 -6.72,7.58 -10.16,13.58 -10.16,18.02 0,13.59 8.01,26.46 24.02,38.47 16.02,12.01 36.32,18.02 60.78,18.02 11.73,0 24.17,-7.29 37.61,-21.74 13.3,-14.59 20.02,-30.17 20.02,-46.9 0,-14.3 -5.43,-29.6 -16.16,-45.91 -10.73,-16.3 -41.04,-44.62 -91.1,-84.8 -21.45,-17.02 -36.46,-31.32 -44.76,-42.9 -8.44,-11.59 -14.87,-24.74 -19.59,-39.47 -4.58,-14.87 -6.87,-29.6 -6.87,-44.47 0,-26.74 10.87,-51.63 32.75,-74.5 21.73,-22.88 48.34,-34.32 79.65,-34.32 24.6,0 46.19,5.86 64.78,17.73 18.59,11.87 27.89,28.17 27.89,48.76 0,16.73 -6.29,32.32 -19.02,46.62 -12.73,14.44 -27.17,21.59 -43.48,21.59 -13.01,0 -24.17,-6.72 -33.03,-20.02 -9.01,-13.3 -13.44,-26.03 -13.44,-38.32 0,-15.45 8.87,-23.17 26.45,-23.17 5.58,0 10.87,1 15.59,3 -0.57,1 -1.86,2.72 -3.72,5 -10.16,11.16 -15.16,21.45 -15.16,30.6 0,6.72 5,12.16 15.02,16.16 10.01,4.15 18.45,6.15 25.02,6.15 5.58,0 10.58,-3 15.02,-9.01 4.44,-6.01 6.72,-11.73 6.72,-17.3 0,-19.02 -6.87,-35.9 -20.73,-50.91 -13.73,-14.87 -30.32,-22.31 -49.48,-22.31 -17.88,0 -32.75,6.87 -44.76,20.73 -12.01,13.87 -18.02,28.6 -18.02,44.19 0,54.49 24.88,100.53 74.5,138.29 52.77,40.76 79.08,80.8 79.08,120.27 0,22.88 -4.72,42.62 -14.3,59.2 -9.44,16.59 -20.88,30.32 -34.32,41.04 -13.44,10.87 -24.02,17.45 -31.89,19.74 -7.73,2.43 -19.88,3.57 -36.47,3.57 -17.59,0 -32.61,-8.58 -45.19,-25.88 -12.59,-17.3 -18.88,-35.89 -18.88,-55.77 0,-14.16 5.29,-27.03 15.88,-38.47 10.58,-11.44 21.73,-17.16 33.46,-17.16 8.29,0 15.59,2.29 21.88,6.72 6.29,4.43 9.44,9.87 9.44,16.59 0,5.86 -2.29,12.01 -7.01,18.73zm416.43 36.75c-30.18,8.15 -55.06,12.15 -74.65,12.15 -46.62,0 -86.09,-20.45 -118.27,-61.49 -32.17,-41.04 -48.19,-88.95 -48.19,-143.72 0,-50.19 19.59,-95.24 58.63,-135 39.04,-39.76 83.66,-59.63 133.57,-59.63 22.88,0 46.19,7.15 69.93,21.59 23.74,14.3 35.61,31.46 35.61,51.34 0,16.73 -7.86,32.75 -23.59,48.19 -15.88,15.3 -32.61,23.03 -50.48,23.03 -15.87,0 -30.17,-4.29 -42.62,-12.73 -12.59,-8.58 -18.88,-19.59 -18.88,-33.32 0,-12.87 4,-22.88 12.16,-29.89 8.15,-7.15 19.16,-10.73 33.18,-10.73 8.15,0 15.44,2 22.02,6.15 6.58,4.15 9.87,9.44 9.87,15.88 0,4 -2.58,8.01 -7.86,12.15 -5.15,4.15 -10.01,6.15 -14.59,6.15l-5.01 0c2.86,-9.15 4.29,-15.16 4.29,-17.88 0,-7.01 -4.29,-10.44 -13.01,-10.44 -5,0 -9.3,2.86 -13.16,8.72 -3.72,5.72 -5.58,11.58 -5.58,17.3 0,22.17 10.3,33.18 30.89,33.18 13.87,0 25.31,-5.15 34.03,-15.3 8.72,-10.29 13.16,-22.59 13.16,-37.18 0,-17.3 -7.29,-32.03 -22.02,-44.19 -14.58,-12.16 -31.03,-18.3 -49.05,-18.3 -38.04,0 -69.64,19.74 -95.1,59.2 -25.31,39.47 -38.04,81.37 -38.04,125.56 0,48.62 9.87,92.38 29.74,131.14 19.88,38.75 46.05,58.2 78.37,58.2 25.46,0 44.33,-10.87 56.63,-32.61l18.02 32.46zm291.01 -259.98c-3.86,6.43 -8.72,9.58 -14.59,9.58 -3.58,0 -7.01,-1.72 -10.01,-5.15 -3,-3.58 -4.58,-8.01 -4.58,-13.58 0,-6.72 3,-12.16 9.15,-16.59 6.15,-4.43 12.87,-6.72 20.02,-6.72 8.15,0 15.73,3.43 22.88,10.3 7,6.87 10.58,14.01 10.58,21.59 0,17.87 -5,32.03 -15.16,42.47 -10.01,10.44 -23.02,15.73 -39.04,15.73 -11.44,0 -21.31,-6.01 -29.46,-17.88 -8.3,-11.87 -12.44,-26.45 -12.44,-43.9 0,-20.16 8.87,-38.61 26.46,-55.49 17.73,-16.74 35.75,-25.17 54.2,-25.17 37.89,0 72.5,16.73 103.96,50.19 31.32,33.46 47.05,71.22 47.05,113.41 0,52.05 -18.02,99.1 -53.91,140.86 -36.04,41.9 -74.51,62.78 -115.69,62.78 -46.76,0 -88.81,-18.88 -126.13,-56.63 -37.33,-37.75 -56.06,-82.23 -56.06,-133.57 0,-43.19 17.16,-84.23 51.34,-123.27 34.18,-39.04 74.65,-63.78 121.27,-74.36l5 10.29c-35.46,6.44 -64.78,27.17 -87.95,62.07 -23.17,34.89 -34.75,72.93 -34.75,113.98 0,56.2 11.58,101.82 34.89,136.86 23.31,35.04 54.05,52.62 91.95,52.62 29.03,0 55.77,-17.73 80.22,-53.2 24.45,-35.47 36.61,-76.94 36.61,-124.42 0,-45.19 -10.58,-83.37 -31.75,-114.12 -21.17,-30.89 -47.05,-46.33 -77.37,-46.33 -16.45,0 -30.18,6.44 -41.04,19.45 -10.87,13.01 -16.3,27.03 -16.3,42.47 0,9.72 3.72,18.16 11.15,25.17 7.44,7.15 14.59,10.73 21.16,10.73 8.87,0 17.73,-3.43 26.46,-10.29 8.86,-6.72 13.3,-13.45 13.3,-19.88 0,-13.58 -7.72,-20.45 -23.03,-20.45 -6.43,0 -9.58,3.43 -9.58,10.44 0,3 3.72,6.44 11.15,10.01zm485.65 -321.62c-1.72,-2.86 -2.57,-5.72 -2.57,-8.87 0,-5.43 2.29,-10.16 6.86,-14.16 4.72,-4.15 9.44,-6.15 14.59,-6.15 9.44,0 18.02,3.43 25.6,10.29 7.58,6.87 11.3,13.59 11.3,20.31 0,13.3 -5.86,25.03 -17.45,35.32 -11.58,10.44 -25.31,15.59 -40.9,15.59 -16.87,0 -31.32,-5.72 -43.48,-17.02 -12.15,-11.3 -18.3,-24.74 -18.3,-40.33 0,-15.45 9.58,-30.32 28.75,-44.62 19.16,-14.44 42.19,-21.59 68.93,-21.59 27.17,0 52.34,8.01 75.36,23.88 23.02,15.88 34.61,35.18 34.61,57.77 0,36.04 -14.87,63.21 -44.62,81.51 -29.89,18.3 -84.23,31.75 -163.03,40.47 2.29,65.64 3.43,120.98 3.43,166.31 0,58.63 -2.57,152.16 -7.72,280.58 44.76,0 81.08,-5.87 108.97,-17.31l0 26.6c-39.33,5.86 -80.23,9.44 -122.55,10.44 -14.44,0.57 -34.89,3.72 -61.07,9.3l0 -23.16 52.34 -3.43c0,-56.06 -4.44,-132.71 -13.44,-230.1 -9.01,-97.24 -19.16,-167.32 -30.32,-209.93 -35.61,7.15 -88.24,14.3 -158.31,21.31l6.44 78.94 -22.31 2.57c-2,-49.62 -6.29,-87.52 -12.87,-113.83l21.45 -3.72 3.72 17.16c76.94,-6.72 150.44,-16.3 220.8,-28.75 70.22,-12.59 117.69,-27.03 142.43,-43.33 24.74,-16.3 37.18,-39.61 37.18,-69.93 0,-17.45 -6.43,-31.89 -19.45,-43.33 -13.01,-11.44 -30.46,-17.16 -52.49,-17.16 -15.73,0 -30.46,5.43 -44.47,16.3 -13.87,10.73 -20.88,23.02 -20.88,36.75 0,10.58 3.58,20.73 10.73,30.32 7.01,9.58 15.16,14.44 24.45,14.44 10.01,0 18.02,-2.86 23.88,-8.58 5.86,-5.86 8.72,-12.73 8.72,-21.02 0,-4.15 -1.57,-8.15 -4.58,-12.3 -3.14,-4.15 -7.01,-6.15 -11.73,-6.15 -4.29,0 -10.3,2.86 -18.02,8.58zm255.12 321.62c-3.86,6.43 -8.72,9.58 -14.59,9.58 -3.58,0 -7.01,-1.72 -10.01,-5.15 -3,-3.58 -4.58,-8.01 -4.58,-13.58 0,-6.72 3,-12.16 9.15,-16.59 6.15,-4.43 12.87,-6.72 20.02,-6.72 8.15,0 15.73,3.43 22.88,10.3 7,6.87 10.58,14.01 10.58,21.59 0,17.87 -5,32.03 -15.16,42.47 -10.01,10.44 -23.02,15.73 -39.04,15.73 -11.44,0 -21.31,-6.01 -29.46,-17.88 -8.3,-11.87 -12.44,-26.45 -12.44,-43.9 0,-20.16 8.87,-38.61 26.46,-55.49 17.73,-16.74 35.75,-25.17 54.2,-25.17 37.89,0 72.5,16.73 103.96,50.19 31.32,33.46 47.05,71.22 47.05,113.41 0,52.05 -18.02,99.1 -53.91,140.86 -36.04,41.9 -74.51,62.78 -115.69,62.78 -46.76,0 -88.81,-18.88 -126.13,-56.63 -37.33,-37.75 -56.06,-82.23 -56.06,-133.57 0,-43.19 17.16,-84.23 51.34,-123.27 34.18,-39.04 74.65,-63.78 121.27,-74.36l5 10.29c-35.46,6.44 -64.78,27.17 -87.95,62.07 -23.17,34.89 -34.75,72.93 -34.75,113.98 0,56.2 11.58,101.82 34.89,136.86 23.31,35.04 54.05,52.62 91.95,52.62 29.03,0 55.77,-17.73 80.22,-53.2 24.45,-35.47 36.61,-76.94 36.61,-124.42 0,-45.19 -10.58,-83.37 -31.75,-114.12 -21.17,-30.89 -47.05,-46.33 -77.37,-46.33 -16.45,0 -30.18,6.44 -41.04,19.45 -10.87,13.01 -16.3,27.03 -16.3,42.47 0,9.72 3.72,18.16 11.15,25.17 7.44,7.15 14.59,10.73 21.16,10.73 8.87,0 17.73,-3.43 26.46,-10.29 8.86,-6.72 13.3,-13.45 13.3,-19.88 0,-13.58 -7.72,-20.45 -23.03,-20.45 -6.43,0 -9.58,3.43 -9.58,10.44 0,3 3.72,6.44 11.15,10.01zm604.05 285.01c-32.17,9.15 -58.2,18.59 -78.08,28.32l-9.58 -98.96c-35.18,51.05 -77.37,76.65 -126.85,76.65 -37.61,0 -72.22,-15.02 -103.68,-45.05 -31.6,-30.17 -47.34,-66.64 -47.34,-109.68 0,-17.73 5.15,-37.33 15.45,-58.78 10.29,-21.59 22.17,-38.9 35.32,-52.2 13.3,-13.3 24.74,-28.46 34.32,-45.62 9.58,-17.02 14.44,-30.46 14.44,-40.19 0,-29.89 -12.73,-44.9 -38.18,-44.9 -11.01,0 -21.59,3.14 -31.6,9.58 -10.15,6.43 -15.16,14.3 -15.16,23.74 0,6.43 2.57,12.01 7.72,16.87 5.15,4.86 10.73,7.29 16.73,7.29 7.01,0 11.44,-0.71 13.16,-2 1.86,-1.43 2.72,-3.58 2.72,-6.72 0,-6.87 -5.72,-11.44 -17.16,-13.58 5.72,-6.87 10.44,-10.3 14.01,-10.3 5.01,0 9.44,2.29 13.45,6.87 4,4.72 6.01,10.01 6.01,16.3 0,9.15 -3.86,17.73 -11.44,25.74 -7.58,8.01 -15.88,12.01 -25.03,12.01 -8.58,0 -16.45,-4.29 -23.74,-12.73 -7.29,-8.58 -11.01,-17.45 -11.01,-26.74 0,-17.31 6.44,-34.04 19.16,-50.34 12.72,-16.16 26.17,-24.31 40.61,-24.31 15.73,0 28.74,6.72 39.04,20.02 10.15,13.3 15.3,29.32 15.3,48.05 0,25.74 -6.87,50.63 -20.45,74.79 -29.89,52.91 -44.76,93.95 -44.76,123.13 0,43.33 10.44,77.51 31.18,102.53 20.73,24.88 48.76,37.32 83.94,37.32 43.04,0 79.8,-28.88 110.54,-86.66 -10.01,-89.09 -24.6,-177.18 -43.76,-264.27l-44.62 2.58 1.72 -18.02c49.62,-0.86 96.1,-8.58 139.14,-23.17l4.15 17.16 -42.9 11.73c0,94.95 5.15,219.09 15.45,372.67 20.02,-4.15 38.75,-10.44 55.91,-18.88l5.86 19.73zm114.98 -286.87c11.44,-38.47 27.46,-68.07 48.34,-88.38 20.73,-20.45 41.9,-30.6 63.35,-30.6 20.73,0 38.33,8.44 53.2,25.31 14.73,17.02 22.17,37.61 22.17,61.92 0,28.46 -8.44,51.63 -25.17,69.5 -16.73,17.88 -38.33,26.89 -64.78,26.89 -13.73,0 -25.31,-5.29 -34.75,-15.88 -9.58,-10.58 -14.3,-23.31 -14.3,-38.04 0,-7.29 6.15,-16.3 18.59,-27.03 12.44,-10.73 22.6,-16.02 30.46,-16.02 11.15,0 20.73,2.72 28.89,8.01 8.15,5.29 12.15,12.59 12.15,22.17 0,10.58 -9.44,18.02 -28.31,22.17 3.43,-8.44 5.15,-15.3 5.15,-20.59 0,-10.87 -3.72,-16.3 -11.3,-16.3 -6.43,0 -11.87,3.86 -16.3,11.73 -4.44,7.72 -6.72,15.59 -6.72,23.45 0,7.15 3.15,14.3 9.44,21.31 6.29,7.01 12.87,10.44 19.88,10.44 19.02,0 34.03,-6.72 45.05,-20.31 11.01,-13.58 16.59,-30.46 16.59,-50.91 0,-14.59 -6.58,-27.03 -19.73,-37.47 -13.01,-10.44 -28.03,-15.73 -44.76,-15.73 -17.3,0 -33.03,4.57 -47.33,13.58 -14.16,9.15 -27.31,25.31 -39.47,48.62 -12.15,23.17 -18.3,37.76 -18.3,43.62 0,4.43 5.43,82.94 16.02,235.53 34.04,-10.3 64.92,-24.31 92.81,-41.9l5.01 20.59c-31.32,15.73 -60.35,28.03 -87.09,36.9 -26.74,9.01 -60.92,16.16 -102.54,21.45l0 -21.45c24.6,0 48.34,-3.29 71.22,-9.72 0,-29.6 -6.72,-80.94 -20.02,-153.73 -13.3,-72.79 -27.46,-134.14 -42.62,-184.05l-59.35 21.45 -4.15 -13.73c54.2,-13.87 97.38,-35.61 129.56,-65.21 -1.72,23.45 -2.58,39.75 -2.58,48.62 0,24.6 0.57,49.2 1.72,73.79zm324.34 225.09c-12.01,-11.44 -22.17,-17.16 -30.75,-17.16 -4.72,0 -10.44,3.72 -17.3,11.3 -6.72,7.58 -10.16,13.58 -10.16,18.02 0,13.59 8.01,26.46 24.02,38.47 16.02,12.01 36.32,18.02 60.78,18.02 11.73,0 24.17,-7.29 37.61,-21.74 13.3,-14.59 20.02,-30.17 20.02,-46.9 0,-14.3 -5.43,-29.6 -16.16,-45.91 -10.73,-16.3 -41.04,-44.62 -91.1,-84.8 -21.45,-17.02 -36.46,-31.32 -44.76,-42.9 -8.44,-11.59 -14.87,-24.74 -19.59,-39.47 -4.58,-14.87 -6.87,-29.6 -6.87,-44.47 0,-26.74 10.87,-51.63 32.75,-74.5 21.73,-22.88 48.34,-34.32 79.65,-34.32 24.6,0 46.19,5.86 64.78,17.73 18.59,11.87 27.89,28.17 27.89,48.76 0,16.73 -6.29,32.32 -19.02,46.62 -12.73,14.44 -27.17,21.59 -43.48,21.59 -13.01,0 -24.17,-6.72 -33.03,-20.02 -9.01,-13.3 -13.44,-26.03 -13.44,-38.32 0,-15.45 8.87,-23.17 26.45,-23.17 5.58,0 10.87,1 15.59,3 -0.57,1 -1.86,2.72 -3.72,5 -10.16,11.16 -15.16,21.45 -15.16,30.6 0,6.72 5,12.16 15.02,16.16 10.01,4.15 18.45,6.15 25.02,6.15 5.58,0 10.58,-3 15.02,-9.01 4.44,-6.01 6.72,-11.73 6.72,-17.3 0,-19.02 -6.87,-35.9 -20.73,-50.91 -13.73,-14.87 -30.32,-22.31 -49.48,-22.31 -17.88,0 -32.75,6.87 -44.76,20.73 -12.01,13.87 -18.02,28.6 -18.02,44.19 0,54.49 24.88,100.53 74.5,138.29 52.77,40.76 79.08,80.8 79.08,120.27 0,22.88 -4.72,42.62 -14.3,59.2 -9.44,16.59 -20.88,30.32 -34.32,41.04 -13.44,10.87 -24.02,17.45 -31.89,19.74 -7.73,2.43 -19.88,3.57 -36.47,3.57 -17.59,0 -32.61,-8.58 -45.19,-25.88 -12.59,-17.3 -18.88,-35.89 -18.88,-55.77 0,-14.16 5.29,-27.03 15.88,-38.47 10.58,-11.44 21.73,-17.16 33.46,-17.16 8.29,0 15.59,2.29 21.88,6.72 6.29,4.43 9.44,9.87 9.44,16.59 0,5.86 -2.29,12.01 -7.01,18.73z"/>
 </g>
</svg>
