<?xml version="1.0" encoding="UTF-8"?>
<!DOCTYPE svg PUBLIC "-//W3C//DTD SVG 1.1//EN" "http://www.w3.org/Graphics/SVG/1.1/DTD/svg11.dtd">
<!-- Creator: CorelDRAW 2019 (64-Bit) -->
<svg xmlns="http://www.w3.org/2000/svg" xml:space="preserve" width="30.5383mm" height="31.2299mm" version="1.1" style="shape-rendering:geometricPrecision; text-rendering:geometricPrecision; image-rendering:optimizeQuality; fill-rule:evenodd; clip-rule:evenodd"
viewBox="0 0 386.52 395.27"
 xmlns:xlink="http://www.w3.org/1999/xlink">
 <defs>
  <style type="text/css">
   <![CDATA[
    .str0 {stroke:#FEFEFE;stroke-width:2.53;stroke-miterlimit:22.9256}
    .str1 {stroke:#FFCC29;stroke-width:2.53;stroke-miterlimit:22.9256}
    .fil0 {fill:#FEFEFE}
    .fil3 {fill:#FFCC29}
    .fil5 {fill:#F5874F}
    .fil4 {fill:#CB7246}
    .fil2 {fill:dimgray}
    .fil1 {fill:#6C6C6C}
   ]]>
  </style>
 </defs>
 <g id="Capa_x0020_1">
  <metadata id="CorelCorpID_0Corel-Layer"/>
  <path class="fil0 str0" d="M186.33 149.12l185.05 0 0 184.82 -185.05 0 0 -184.82zm-13.88 87.79l-124.91 0 0 -129.38 198.94 0 0 27.72 -74.02 0 0 101.65zm-134.16 9.24l134.16 0 0 18.48 -157.3 0 0 -184.82 259.08 0 0 55.45 -18.51 0 0 -36.96 -217.44 0 0 147.86zm64.77 -184.82l4.63 0 0 -4.62 4.63 0 0 -4.62 4.62 0 0 -4.62 4.63 0 0 -4.62 4.63 0 0 -4.62 4.63 0 0 -4.62 27.76 0 0 4.62 4.63 0 0 4.62 4.63 0 0 4.62 4.62 0 0 4.62 4.63 0 0 4.62 4.63 0 0 4.62 4.63 0 0 4.62 -83.28 0 0 -4.62zm46.27 -36.97l-9.26 0 0 -13.86 13.88 0 0 9.24 -4.62 0 0 4.62zm-9.26 -18.48l-9.25 0 0 23.1 -4.63 0 0 4.62 -4.63 0 0 4.62 -4.63 0 0 4.62 -4.62 0 0 4.62 -4.63 0 0 4.62 -4.63 0 0 4.62 -9.25 0 0 4.62 -4.63 0 0 4.62 -83.27 0 0 4.62 -4.63 0 0 207.93 171.17 0 0 69.31 46.27 0 0 9.24 -4.63 0 0 4.62 -4.63 0 0 4.62 -4.63 0 0 9.24 -4.62 0 0 4.62 -4.63 0 0 9.25 4.63 0 0 4.62 9.25 0 0 -4.62 4.63 0 0 -4.62 4.63 0 0 -9.24 4.62 0 0 -4.62 4.63 0 0 -4.62 4.63 0 0 -9.24 4.63 0 0 -4.62 4.62 0 0 -4.62 74.02 0 0 4.62 4.63 0 0 9.24 4.63 0 0 4.62 4.62 0 0 4.62 4.63 0 0 9.24 4.63 0 0 4.62 4.63 0 0 9.24 13.88 0 0 -18.48 -4.63 0 0 -4.62 -4.63 0 0 -9.24 -4.62 0 0 -4.62 -4.63 0 0 -4.62 41.64 0 0 -4.62 4.62 0 0 -212.55 -92.52 0 0 -64.69 -4.63 0 0 -4.62 -87.9 0 0 -4.62 -4.63 0 0 -4.62 -4.63 0 0 -4.62 -4.62 0 0 -4.62 -4.63 0 0 -4.62 -4.63 0 0 -4.62 -4.63 0 0 -4.62 -4.62 0 0 -4.62 -4.63 0 0 -18.48 -4.63 0 0 -4.62 -4.63 0 0 -4.62 -13.88 0 0 4.62z"/>
  <path class="fil1" d="M269.6 283.12l4.63 0 0 -4.62 4.62 0 0 -9.24 4.63 0 0 -4.62 9.26 0 0 9.24 4.62 0 0 4.62 4.63 0 0 9.24 4.63 0 0 4.62 -37.01 0 0 -9.24zm13.88 -27.72l-4.63 0 0 9.24 -4.62 0 0 4.62 -4.63 0 0 4.62 -4.63 0 0 9.24 -4.63 0 0 4.62 -4.62 0 0 13.86 64.77 0 0 -9.24 -4.63 0 0 -9.24 -4.63 0 0 -4.62 -4.62 0 0 -9.24 -4.63 0 0 -4.62 -4.63 0 0 -9.24 -4.62 0 0 -4.62 -9.26 0 0 4.62z"/>
  <path class="fil0 str0" d="M223.33 218.43l4.63 0 0 -4.62 23.13 0 0 4.62 4.63 0 0 23.11 -4.63 0 0 4.62 -23.13 0 0 -4.62 -4.63 0 0 -23.11zm4.63 -9.24l-9.25 0 0 9.24 -4.63 0 0 23.11 4.63 0 0 9.24 9.25 0 0 4.62 23.13 0 0 -4.62 9.25 0 0 -4.62 4.63 0 0 -32.34 -4.63 0 0 -4.62 -9.25 0 0 -4.62 -23.13 0 0 4.62z"/>
  <path class="fil2" d="M297.35 190.71l37.01 0 0 36.97 -37.01 0 0 -36.97zm-9.25 41.58l50.89 0 0 -50.82 -50.89 0 0 50.82z"/>
  <polygon class="fil3 str1" points="329.74,190.71 297.35,190.71 297.35,223.05 329.74,223.05 "/>
  <polygon class="fil4" points="227.96,218.43 223.33,218.43 223.33,241.54 227.96,241.54 227.96,246.15 251.09,246.15 251.09,241.54 255.72,241.54 255.72,218.43 251.09,218.43 251.09,213.81 227.96,213.81 "/>
  <polygon class="fil3 str1" points="283.48,269.26 278.85,269.26 278.85,278.5 274.23,278.5 274.23,283.12 269.6,283.12 269.6,292.36 306.61,292.36 306.61,287.74 301.98,287.74 301.98,278.5 297.35,278.5 297.35,273.88 292.73,273.88 292.73,264.64 283.48,264.64 "/>
  <polygon class="fil3 str1" points="297.35,223.05 297.35,227.68 334.37,227.68 334.37,190.71 329.74,190.71 329.74,223.05 "/>
  <polygon class="fil5" points="140.06,24.37 149.31,24.37 149.31,19.75 153.93,19.75 153.93,10.51 140.06,10.51 "/>
 </g>
</svg>
