<?xml version="1.0" encoding="UTF-8"?>
<!DOCTYPE svg PUBLIC "-//W3C//DTD SVG 1.1//EN" "http://www.w3.org/Graphics/SVG/1.1/DTD/svg11.dtd">
<!-- Creator: CorelDRAW 2019 (64-Bit) -->
<svg xmlns="http://www.w3.org/2000/svg" xml:space="preserve" width="33.6282mm" height="21.5385mm" version="1.1" style="shape-rendering:geometricPrecision; text-rendering:geometricPrecision; image-rendering:optimizeQuality; fill-rule:evenodd; clip-rule:evenodd"
viewBox="0 0 851.02 545.07"
 xmlns:xlink="http://www.w3.org/1999/xlink">
 <defs>
  <style type="text/css">
   <![CDATA[
    .fil0 {fill:#FEFEFE}
    .fil1 {fill:#F95440}
   ]]>
  </style>
 </defs>
 <g id="Capa_x0020_1">
  <metadata id="CorelCorpID_0Corel-Layer"/>
  <path class="fil0" d="M37 46.19l9.25 0 0 -9.23 462.51 0 0 314.1 -9.25 0 0 -9.23 -9.25 0 0 -9.24 -9.24 0 0 -9.24 -434.76 0 0 -9.23 -9.25 0 0 -267.92zm518.02 203.25l259 0 0 212.48 -342.26 0 0 9.24 -9.25 0 0 9.23 -9.24 0 0 -120.09 9.24 0 0 9.24 9.25 0 0 9.23 9.25 0 0 9.24 9.24 0 0 9.23 9.25 0 0 9.24 18.51 0 0 9.24 27.75 0 0 -9.24 9.25 0 0 -36.95 212.76 0 0 -18.48 -212.76 0 0 -36.95 129.5 0 0 -18.48 -129.5 0 0 -46.19zm-527.26 -240.2l-9.25 0 0 9.23 -9.25 0 0 9.24 -9.25 0 0 304.87 9.25 0 0 9.24 9.25 0 0 9.23 9.25 0 0 9.24 388.51 0 0 184.77 27.75 0 0 -9.24 18.49 0 0 -9.23 9.25 0 0 -9.24 9.25 0 0 -9.24 9.24 0 0 -9.23 342.27 0 0 -9.24 9.25 0 0 -9.24 9.24 0 0 -240.2 -9.24 0 0 -18.47 -18.51 0 0 -9.24 -268.25 0 0 -175.52 -9.25 0 0 -18.48 -9.25 0 0 -9.23 -18.49 0 0 -9.24 -490.26 0 0 9.24z"/>
  <polygon class="fil1" points="555.02,295.63 684.52,295.63 684.52,314.11 555.02,314.11 555.02,351.06 767.78,351.06 767.78,369.54 555.02,369.54 555.02,406.49 545.77,406.49 545.77,415.73 518.02,415.73 518.02,406.49 499.51,406.49 499.51,397.25 490.26,397.25 490.26,388.02 481.02,388.02 481.02,378.78 471.76,378.78 471.76,369.54 462.51,369.54 462.51,360.3 453.27,360.3 453.27,480.4 462.51,480.4 462.51,471.16 471.76,471.16 471.76,461.92 814.02,461.92 814.02,249.44 555.02,249.44 "/>
  <polygon class="fil0" points="101.75,166.29 397.76,166.29 397.76,138.58 101.75,138.58 "/>
  <polygon class="fil0" points="101.75,221.72 342.27,221.72 342.27,194.01 101.75,194.01 "/>
  <polygon class="fil0" points="101.75,101.62 296.01,101.62 296.01,83.15 101.75,83.15 "/>
 </g>
</svg>
