<?xml version="1.0" encoding="UTF-8"?>
<!DOCTYPE svg PUBLIC "-//W3C//DTD SVG 1.1//EN" "http://www.w3.org/Graphics/SVG/1.1/DTD/svg11.dtd">
<!-- Creator: CorelDRAW 2019 (64-Bit) -->
<svg xmlns="http://www.w3.org/2000/svg" xml:space="preserve" width="99.7499mm" height="15.2821mm" version="1.1" style="shape-rendering:geometricPrecision; text-rendering:geometricPrecision; image-rendering:optimizeQuality; fill-rule:evenodd; clip-rule:evenodd"
viewBox="0 0 3748.32 574.26"
 xmlns:xlink="http://www.w3.org/1999/xlink">
 <defs>
  <style type="text/css">
   <![CDATA[
    .fil0 {fill:#E6E7E8;fill-rule:nonzero}
   ]]>
  </style>
 </defs>
 <g id="Capa_x0020_1">
  <metadata id="CorelCorpID_0Corel-Layer"/>
  <path class="fil0" d="M68.56 64.22l-11.75 -15.74 384.09 54.19 -7.64 53.16 -11.75 -15.74 4.34 -26.01 -357.29 -49.85zm203.17 104.61l-41.75 297.96 -70.5 -10.38 15.06 -11.41 43.8 6.05 41.75 -297.85 11.64 15.63zm-239.56 -152.41l-15.74 109.29 156.74 22.82 -46.43 332.64 127.99 17.68 46.43 -332.65 157.43 22.02 15.06 -109.63 -441.48 -62.17zm452.54 88.98l25.21 3.31 -19.16 138.37 -157.54 -22.02 -46.43 332.76 -156.74 -22.02 5.36 -39.7 -25.44 -3.31 41.18 -293.18 -131.41 -19.05 5.7 -39.13 -25.44 -3.31 19.74 -138.14 470.34 66.28 -5.36 39.13zm367.67 -28.75l-14.94 -11.75 70.27 -10.38 32.06 232.72c1.37,8.56 2.28,16.08 2.85,22.82 0.57,6.61 0.8,12.78 0.8,18.36 0,44.6 -12.78,79.17 -38.33,103.81 -25.67,24.64 -64.34,39.81 -116.13,45.63l-2.05 -13.69c48.25,-4.68 84.19,-18.37 107.57,-40.84 23.5,-22.47 35.25,-54.53 35.25,-96.28 0,-6.85 -0.23,-13.46 -0.69,-19.74 -0.45,-6.16 -1.14,-12.32 -2.28,-18.37l-30.69 -218.68 -43.69 6.39zm-288.95 26.69l69.93 -9.69 30.11 212.98c5.13,36.62 14.26,63.65 27.27,81.34 13.12,17.57 32.28,29.32 57.72,35.02l-3.99 13.69c-28.18,-6.39 -49.62,-19.62 -64.45,-39.58 -14.83,-19.96 -24.87,-49.4 -30.23,-88.41l-28.06 -199.97 -43.23 6.05 -15.06 -11.41zm-32.74 -24.07l35.48 254.84c7.99,56.35 27.04,99.7 56.93,130.16 30,30.46 68.44,45.63 115.44,45.63 76.43,0 134.5,-15.63 174.19,-46.77 39.58,-31.26 59.44,-76.77 59.44,-136.78 0,-6.05 -0.23,-12.55 -0.8,-19.51 -0.57,-7.08 -1.48,-14.94 -2.85,-23.62l-36.16 -260.66 -127.65 18.25 33.42 241.16c0.46,3.08 1.14,7.64 2.06,13.69 1.71,11.52 2.62,19.62 2.62,24.07 0,22.93 -6.73,41.41 -20.19,55.44 -13.58,14.03 -31.49,21.1 -53.73,21.1 -22.59,0 -39.81,-7.19 -51.68,-21.56 -11.98,-14.37 -20.31,-38.44 -24.98,-72.1l-33.42 -241.73 -128.11 18.37zm-16.43 -12.32l156.63 -21.79 5.7 38.78 25.32 -3.31 35.48 255.42c1.14,8.79 2.4,16.54 3.77,23.27 1.26,6.85 2.85,12.78 4.68,17.91 3.54,1.6 7.07,2.74 10.5,3.54 3.42,0.8 7.18,1.14 11.18,1.14 18.48,0 33.2,-5.59 44.03,-16.88 10.84,-11.29 16.2,-26.58 16.2,-45.97 0,-4.91 -0.91,-13.81 -2.63,-26.81 -0.68,-3.77 -1.14,-6.5 -1.37,-8.33l-35.48 -255.42 156.51 -21.67 5.36 39.02 25.32 -3.65 38.22 274.47c1.37,9.13 2.28,17.45 2.85,24.76 0.57,7.41 0.8,14.26 0.8,20.76 0,63.88 -21.33,112.82 -63.99,146.7 -42.67,34 -104.15,50.99 -184.58,50.99 -31.26,0 -59.78,-6.96 -85.78,-20.99 -25.9,-14.03 -47.91,-34.33 -65.94,-61.03 -17.91,-15.63 -32.06,-34.79 -42.55,-57.38 -10.5,-22.59 -18.02,-50.76 -22.7,-84.42l-37.53 -269.11zm897.55 266.48l2.28 -13.69c14.72,0.91 26.35,4.9 34.79,11.98 8.44,7.18 16.09,19.73 22.7,37.76l26.81 71.87 -19.05 -11.4 -20.76 -54.76c-6.73,-17.34 -13.23,-28.52 -19.74,-33.54 -6.5,-5.02 -15.52,-7.76 -27.04,-8.21zm-316.67 -228.61l207.28 -29.32c13.35,-2.06 24.75,-3.42 34.11,-4.34 9.35,-0.91 17.45,-1.37 24.41,-1.37 29.66,0 52.48,7.64 68.33,22.93 15.97,15.17 23.96,36.96 23.96,65.25 0,15.17 -3.54,28.06 -10.5,38.78 -7.07,10.61 -18.14,19.85 -33.31,27.72l-6.96 -12.32c13.12,-6.5 22.7,-14.03 28.75,-22.7 6.05,-8.78 9.01,-19.16 9.01,-31.48 0,-24.3 -6.73,-42.78 -20.19,-55.44 -13.58,-12.66 -33.2,-19.05 -59.09,-19.05 -6.05,0 -13.46,0.45 -22.24,1.37 -8.79,0.91 -20.08,2.28 -33.88,4.34l-194.61 27.38 -15.06 -11.75zm115.67 377.02l-15.06 -12.43 -17.68 -124.34 15.74 12.09 17 124.68zm-62.17 -343.59l15.74 12.43 20.42 146.36 61.49 -8.1 2.28 13.69 -75.52 10.04 -24.41 -174.42zm52.48 0l41.86 -5.93c7.3,-1.14 14.49,-2.05 21.56,-2.74 6.96,-0.68 13.46,-1.03 19.51,-1.03 20.99,0 37.53,6.05 49.62,17.91 12.21,11.98 18.25,28.18 18.25,48.6 0,20.31 -6.84,35.71 -20.42,46.2 -13.58,10.38 -36.85,18.14 -69.81,23.04l-42.55 5.93 -18.03 -131.99zm-138.72 -58.07l62.17 442.73 128.11 -18.36 -22.82 -159.48 50.2 -7.64c2.85,-0.45 5.93,-0.8 9.01,-1.03 3.08,-0.23 7.3,-0.34 12.66,-0.34 18.82,0 33.08,4.68 43,13.92 9.93,9.24 19.62,29.43 28.98,60.69l22.7 73.81 141.79 -19.74 -39.13 -104.61c-10.04,-26.92 -23.39,-45.63 -40.04,-56.13 -16.54,-10.5 -41.18,-15.63 -73.69,-15.63l-14.37 0 -1.94 -13.81c38.78,-12.43 67.42,-28.18 85.9,-47.23 18.48,-19.05 27.72,-42.21 27.72,-69.36 0,-36.28 -10.72,-64.8 -32.28,-85.33 -21.45,-20.65 -51.33,-30.91 -89.44,-30.91 -7.07,0 -15.85,0.45 -26.12,1.37 -10.15,0.91 -22.36,2.28 -36.39,4.34l-236.02 32.74zm185.49 105.87l8.78 64.57 2.62 -0.68c29.66,-4.22 49.97,-10.5 61.03,-18.59 11.07,-8.1 16.54,-20.19 16.54,-36.28 0,-2.17 -0.34,-5.82 -1.03,-10.95 -0.23,-0.91 -0.34,-1.6 -0.34,-2.05 -4.45,-1.37 -7.99,-2.17 -10.61,-2.62 -2.74,-0.46 -5.36,-0.68 -8.1,-0.68 -5.36,0 -11.52,0.23 -18.71,0.8 -7.18,0.57 -14.72,1.37 -22.7,2.51l-27.49 3.99zm221.08 107c6.5,4.45 12.32,9.7 17.68,15.86 5.36,6.05 10.38,13.35 15.06,21.9 8.9,5.7 16.77,13.57 23.61,23.38 6.84,9.81 12.89,22.02 18.25,36.73l45.18 120.92 -172.6 24.07 -11.4 -38.45 -19.39 2.74 -34.11 -111.34c-3.31,-0.91 -6.62,-1.6 -9.81,-2.17 -3.31,-0.57 -6.5,-0.8 -9.58,-0.8 -4.45,0 -8.1,0.12 -11.07,0.35 -2.85,0.23 -5.7,0.68 -8.67,1.25l-34.79 4.79 21.79 159.93 -156.85 22.02 -5.25 -39.01 -24.76 3.31 -66.28 -470.11 250.4 -35.36c12.09,-1.83 23.5,-3.19 34.33,-4.22 10.84,-1.03 20.88,-1.48 30.23,-1.48 28.52,0 52.71,5.13 72.55,15.4 19.85,10.27 35.59,25.67 47.11,46.43 15.4,11.75 27.15,26.58 35.13,44.37 8.1,17.91 12.09,37.87 12.09,60.23 0,21.1 -5.02,40.15 -15.06,56.92 -10.04,16.77 -24.64,30.91 -43.81,42.32zm169.29 -197.35l-15.06 -11.75 69.81 -10.04 54.76 386.15 -15.97 -11.75 -49.85 -358.66 -43.69 6.05zm-48.14 -35.36l62.51 442.16 127.88 -18.02 -62.4 -442.73 -127.99 18.59zm146.02 4.68l24.98 -3.42 66.51 470.34 -157.31 22.47 -5.36 -39.81 -25.44 4.34 -65.82 -470.91 156.74 -22.02 5.7 39.01zm156.97 52.82l-15.74 -11.64 384.09 -54.19 7.76 53.5 -15.06 -12.32 -4.33 -25.44 -356.72 50.08zm223.93 45.17l41.87 297.05 -69.93 10.04 11.75 -15.74 43.12 -5.93 -41.86 -297.86 15.06 12.43zm-272.41 -80.88l15.74 109.62 156.74 -22.13 46.43 332.87 128.11 -18.02 -46.54 -332.53 156.85 -22.7 -15.06 -109.4 -442.27 62.29zm459.96 -39.13l25.44 -3.42 19.05 137.8 -156.74 22.36 46.77 332.19 -156.74 22.47 -5.7 -39.81 -25.44 4.34 -40.73 -293.75 -132.44 18.37 -5.36 -38.79 -24.76 3.31 -19.74 -138.26 471.02 -66.39 5.36 39.58zm113.05 52.7l-15.06 -11.75 69.81 -10.04 54.76 386.15 -15.97 -11.75 -49.85 -358.66 -43.69 6.05zm-48.14 -35.36l62.51 442.16 127.88 -18.02 -62.4 -442.73 -127.99 18.59zm146.02 4.68l24.98 -3.42 66.51 470.34 -157.31 22.47 -5.36 -39.81 -25.44 4.34 -65.82 -470.91 156.74 -22.02 5.7 39.01zm158.34 45.63l-15.06 -11.63 70.5 -7.42 15.06 144.42 -15.06 -13.01 -11.63 -116.35 -43.81 3.99zm242.98 -25.32l-8.1 -13.12 72.55 -7.3 -118.98 186.17 181.16 199.29 -28.75 -11.07 -169.74 -186.86 108.94 -171.12 -37.08 3.99zm-175.79 242.98l11.63 -15.63 17.8 166.44 -15.06 -13.01 -14.37 -137.8zm-114.31 -254.39l46.43 444.33 128.68 -13.69 -19.74 -191.88 13.01 -6.05 147.04 183.55 161.07 -17.11 -204.77 -224.62 138.95 -217.65 -146.36 15.06 -104.27 186.17 -13.69 -3.65 -17.68 -168.15 -128.68 13.69zm-15.74 -13.01l157.43 -16.43 3.99 38.79 25.44 -1.94 9.01 86.24 75.18 -134.5 183.44 -20.08 -27.38 42.89 56.81 -6.05 -143.74 222.34 227.24 246.75 -197.81 21.1 -29.43 -36.85 -15.63 1.37 -107 -133.13 19.39 182.29 -157.99 16.42 -4.34 -38.78 -25.44 2.62 -49.17 -473.07zm742.18 280.4l140.43 -10.04 5.7 13.8 -148.76 9.93 2.62 -13.69zm-19.74 -259.18l154.8 -10.27 162.79 379.19 -20.42 -13.01 -150.7 -352.5 -136.09 9.58 -10.38 -13zm149.44 221.76l-121.95 7.99 40.38 -178.98 14.37 -1.37 67.19 172.37zm-172.14 -248.46l-125.03 456.42 131.41 -8.67 24.07 -105.63 174.42 -12.43 39.13 100.62 138.72 -9.36 -186.17 -434.63 -196.55 13.69zm122.75 161.65l-17.8 77.12 46.54 -3.31 -28.75 -73.81zm-134.15 -175.33l216.97 -15.06 16.43 38.44 16.31 -0.68 199.29 461.78 -175.79 12.43 -13.8 -38.45 -14.37 0.91 -24.07 -61.83 -139.06 9.69 -24.41 104.61 -163.13 11.75 12.43 -40.5 -40.27 2.74 133.47 -485.85z"/>
 </g>
</svg>
