<?xml version="1.0" encoding="UTF-8"?>
<!DOCTYPE svg PUBLIC "-//W3C//DTD SVG 1.1//EN" "http://www.w3.org/Graphics/SVG/1.1/DTD/svg11.dtd">
<!-- Creator: CorelDRAW 2019 (64-Bit) -->
<svg xmlns="http://www.w3.org/2000/svg" xml:space="preserve" width="109.196mm" height="22.2181mm" version="1.1" style="shape-rendering:geometricPrecision; text-rendering:geometricPrecision; image-rendering:optimizeQuality; fill-rule:evenodd; clip-rule:evenodd"
viewBox="0 0 4562.28 928.29"
 xmlns:xlink="http://www.w3.org/1999/xlink">
 <defs>
  <style type="text/css">
   <![CDATA[
    .fil0 {fill:#E6E7E8;fill-rule:nonzero}
   ]]>
  </style>
 </defs>
 <g id="Capa_x0020_1">
  <metadata id="CorelCorpID_0Corel-Layer"/>
  <path class="fil0" d="M177.48 927.01c-4.89,0 -10.43,0.21 -16.39,0.64 -6.17,0.43 -10,0.64 -11.49,0.64 -20.43,0 -45.97,-6.38 -76.61,-19.37 -30.86,-12.77 -49.16,-22.13 -54.9,-28.09 -6.6,-8.3 -11.28,-22.56 -14.05,-42.99 -2.77,-20.43 -4.04,-64.27 -4.04,-131.52 0,-194.51 3.62,-373.27 10.64,-536.28 0.85,-17.45 1.27,-27.24 1.27,-29.37l0 -20.43c0,-22.56 5.96,-40.22 18.09,-53.42 11.92,-12.98 28.3,-19.58 49.16,-19.58 33.2,0 79.81,9.36 139.61,28.09 14.89,4.47 26.39,8.09 34.26,10.43 7.45,2.13 12.77,11.71 16.17,28.73 1.28,6.38 2.13,11.06 2.56,14.47 6.17,30.65 13.83,70.87 22.98,120.88 20,107.47 34.05,161.31 42.35,161.31 12.56,0 34.26,-90.66 64.91,-271.76l0 -2.98c6.6,-26.6 12.77,-56.18 18.09,-88.53 5.32,-31.92 17.66,-47.88 36.82,-47.88 24.9,0 58.52,5.75 100.66,17.45 42.14,11.7 73.63,23.62 94.49,36.18 9.15,5.32 16.39,12.56 21.71,21.5 5.53,8.94 8.08,18.3 8.08,28.3 0,7.02 -1.06,20 -2.98,38.3 -2.13,18.52 -3.19,33.41 -3.19,44.69 0,4.47 1.28,38.94 3.62,102.79 2.55,64.05 3.83,125.98 3.83,185.78 0,117.26 -2.98,235.16 -8.72,353.48 -0.85,22.13 -1.28,35.33 -1.28,40.01 0,5.74 0.43,12.77 1.28,20.86 0.85,8.08 1.27,13.41 1.27,15.96 0,9.15 -3.62,15.11 -10.85,18.3 -7.45,3.19 -20.43,4.68 -38.95,4.68 -34.47,0 -65.76,-5.11 -93.63,-15.11 -27.67,-10 -41.71,-21.5 -41.71,-34.9l0 -7.45c0,-1.27 0.43,-5.74 1.28,-13.19 6.6,-62.78 10,-131.09 10,-205.15 0,-103.43 4.04,-198.13 11.92,-283.68 0.85,-9.58 1.28,-14.9 1.28,-16.18 -0.43,-4.68 -1.7,-8.08 -3.62,-10.64 -1.7,-2.56 -4.26,-3.83 -7.02,-3.83 -5.53,0 -19.58,56.61 -42.56,169.4 -22.77,112.79 -48.52,223.24 -77.25,331.35 -3.62,-0.43 -10,-2.13 -18.94,-5.32 -8.94,-3.19 -16.39,-4.68 -22.13,-4.68 -0.43,0 -1.7,0.21 -3.41,0.64 -1.91,0.43 -3.83,0.64 -5.32,0.64 -7.24,0 -18.52,-3.19 -34.26,-9.36 -15.96,-6.18 -24.69,-10.64 -26.18,-13.19 -2.13,-3.62 -8.09,-25.75 -17.66,-65.97 -7.87,-34.48 -14.68,-63.42 -20.43,-86.62 -14.26,-57.46 -25.96,-118.11 -35.33,-182.17 -9.36,-64.06 -16.6,-95.98 -22.13,-95.98 -3.62,0 -6.38,1.91 -7.66,5.96 -1.49,3.83 -2.34,12.13 -2.34,24.69 0,2.34 0.43,10.64 1.28,24.9 6.6,95.13 10,193.24 10,294.32 0,28.73 0.21,58.31 0.64,88.53 0.43,30.43 0.64,46.39 0.64,48.1 0,7.02 0.43,14.47 1.49,22.13 1.06,7.66 2.55,16.17 4.68,25.32l-10 16.17zm752.08 -11.49c-29.15,0 -55.12,-7.45 -77.47,-22.34 -22.56,-15.11 -33.83,-33.63 -33.83,-55.55 0,-4.68 0.64,-13.62 1.91,-26.81 1.28,-13.41 1.91,-24.26 1.91,-32.99 0,-15.54 -0.85,-38.95 -2.55,-70.44 -1.7,-31.71 -2.55,-55.97 -2.55,-73 0,-12.77 0.21,-28.73 0.64,-47.67 0.43,-18.94 0.64,-31.49 0.64,-37.67l0 -58.52c0,-7.88 0.21,-21.71 0.64,-41.29 0.43,-19.37 0.64,-34.69 0.64,-45.33 0,-1.28 -0.21,-4.04 -0.64,-8.09 -0.43,-20.43 -0.64,-40.86 -0.64,-61.29 0,-0.21 -0.21,-0.85 -0.64,-1.7 -0.43,-3.83 -0.64,-7.87 -0.64,-12.56 0,-8.72 6.17,-16.6 18.09,-23.62 12.13,-7.02 26.18,-10.64 41.93,-10.64 37.88,0 67.03,10.22 87.25,30.64 20.22,20.22 30.22,49.37 30.22,87.25l0 326.45c0,13.41 -0.21,28.09 -0.64,44.69 -0.43,16.39 -0.64,26.18 -0.64,29.58 0,48.95 -4.47,79.81 -13.62,92.15 -9.36,12.56 -25.96,18.73 -50.01,18.73zm-11.49 -666.53c-1.27,0 -5.53,-1.07 -12.77,-3.41 -7.24,-2.34 -14.68,-3.41 -22.13,-3.41l-14.9 0c-22.77,0 -39.37,-8.51 -49.8,-25.54 -10.42,-17.03 -15.53,-44.69 -15.53,-82.78 0,-30.43 7.24,-56.61 21.5,-78.74 14.26,-22.35 31.92,-33.41 52.56,-33.41l11.28 0c23.62,0 41.5,2.98 53.42,8.94 12.13,6.17 22.34,15.96 31.07,29.58 11.28,18.3 18.51,32.77 21.92,43.63 3.19,10.85 4.9,22.98 4.9,36.82 0,33.2 -7.45,59.59 -22.35,78.95 -14.89,19.58 -34.69,29.37 -59.16,29.37zm374.76 675.46c-60.87,0 -110.24,-22.77 -148.33,-68.52 -38.1,-45.75 -57.03,-106.41 -57.03,-181.53 0,-115.77 13.41,-211.75 40.44,-287.94 27.03,-76.4 57.46,-114.49 91.08,-114.49 2.13,0 6.17,0.43 12.13,1.27 6.17,0.85 11.06,1.28 14.68,1.28 4.26,0 9.15,-0.43 15.11,-1.28 5.74,-0.85 9.15,-1.27 9.79,-1.27 14.68,0 33.41,5.96 56.18,18.09 8.72,4.68 15.32,7.88 20,10 -0.43,0 5.74,1.49 18.3,4.47 12.77,2.77 27.03,8.09 42.78,15.53 17.03,8.73 30.43,28.95 40.22,60.87 9.79,31.92 14.68,72.14 14.68,120.88 0,31.29 -3.83,53.42 -11.28,66.82 -7.45,13.41 -19.79,20 -37.46,20 -32.77,0 -55.12,-2.34 -67.25,-7.24 -12.13,-4.68 -18.09,-15.96 -18.09,-33.41l0 -18.09c0,-20.86 -1.91,-37.24 -5.96,-48.95 -3.83,-11.71 -9.15,-17.45 -15.75,-17.45 -12.56,0 -24.05,22.13 -34.9,66.18 -10.85,44.05 -16.17,95.55 -16.17,154.71 0,3.41 -0.43,8.51 -1.27,15.32 -0.85,6.81 -1.28,11.92 -1.28,15.33l0 12.98c0,11.28 1.49,19.37 4.47,24.26 2.77,4.9 7.23,7.45 12.98,7.45 20,0 41.28,-20 63.63,-60.01 22.56,-40.01 38.95,-60.01 49.37,-60.01 24.05,0 45.97,10.64 65.34,32.14 19.37,21.28 28.94,37.88 28.94,49.59 0,18.94 -7.24,44.69 -21.92,77.25 -14.47,32.35 -30.43,58.95 -47.88,79.59 -10,12.13 -27.03,22.77 -51.08,32.13 -23.83,9.37 -45.33,14.05 -64.48,14.05zm393.49 2.55c-14.47,0 -32.99,-3.19 -55.33,-9.36 -22.56,-6.17 -36.39,-11.7 -41.71,-16.17 -10,-8.72 -17.24,-18.73 -21.49,-30.01 -4.47,-11.28 -6.6,-28.52 -6.6,-51.71l0 -69.8c0,-58.74 0.85,-118.11 2.77,-178.12 1.91,-60.01 2.77,-91.51 2.77,-94.49 0,-11.71 -0.64,-24.9 -2.13,-40.01 -1.49,-14.9 -2.13,-24.05 -2.13,-27.45l0 -12.98c0,-5.74 -1.06,-11.49 -3.19,-17.24 -2.13,-5.53 -2.98,-8.72 -2.98,-9.58 0,-6.6 8.94,-13.83 27.03,-21.49 18.09,-7.66 33.41,-11.49 45.75,-11.49 7.45,0 16.6,3.19 27.45,9.58 10.85,6.6 17.45,9.79 20,9.79 3.62,0 10.85,-13.62 21.07,-41.07 10.43,-27.24 23.84,-40.86 40.01,-40.86 49.8,0 85.76,10.64 107.47,31.92 21.92,21.07 32.77,57.25 32.77,108.54l0 18.09c0,53.2 -5.11,86.19 -15.33,99.17 -10.22,12.98 -29.58,19.37 -58.31,19.37 -7.45,0 -16.81,-10.22 -28.09,-30.65 -11.28,-20.43 -19.37,-30.64 -24.26,-30.64 -4.26,0 -7.45,2.34 -9.79,7.23 -2.34,4.68 -3.41,11.71 -3.41,20.86l0 23.2 0 112.15 0 101.09 0 51.07c0,20 1.07,41.92 3.19,65.55 0.43,5.53 0.64,9.15 0.64,11.28 0,19.58 -3.41,31.71 -10,36.82 -6.6,4.89 -22.14,7.45 -46.18,7.45zm648.44 -313.05c0,81.08 -19.58,153.23 -58.53,216.65 -39.16,63.41 -77.25,95.13 -114.7,95.13 -16.17,0 -32.13,-2.13 -48.09,-6.6 -15.75,-4.26 -28.73,-10.22 -39.16,-17.66 -7.45,-4.68 -22.14,-10.64 -44.05,-18.09 -21.71,-7.45 -38.52,-14.26 -50.01,-20 -16.17,-8.73 -31.07,-32.56 -44.27,-71.72 -13.4,-39.16 -20,-83.42 -20,-132.79 0,-93.64 16.39,-179.4 48.95,-257.93 32.56,-78.31 62.14,-117.47 88.74,-117.47 19.58,0 41.5,5.32 65.76,15.96 24.26,10.64 41.71,15.75 52.14,15.75 0.85,0 2.98,0.85 6.81,2.55 3.62,1.7 7.02,2.55 10,2.55 1.28,0 3.41,-0.43 6.81,-1.27 3.41,-0.85 5.96,-1.28 8.08,-1.28 30.86,0 60.44,29.15 88.75,87.68 28.52,58.31 42.78,127.9 42.78,208.56zm-236.44 167.48c16.6,0 31.5,-21.07 44.48,-62.99 12.98,-41.93 19.58,-94.7 19.58,-158.12 0,-36.18 -2.34,-64.27 -6.81,-84.48 -4.68,-20.22 -10.85,-30.22 -18.73,-30.22 -11.92,0 -26.18,32.35 -42.78,96.83 -16.6,64.69 -24.9,126.41 -24.9,185.36 0,15.32 2.98,28.09 8.72,38.3 5.75,10.22 12.56,15.32 20.43,15.32zm513.94 145.56c-16.17,0 -43.84,-7.66 -83,-22.77 -39.16,-15.11 -60.23,-24.47 -63.63,-27.66 -8.3,-9.15 -18.3,-44.48 -29.79,-106.19 -2.13,-11.49 -3.83,-20.64 -5.11,-27.24 -15.75,-85.76 -28.3,-166.42 -37.46,-241.97 -9.15,-75.76 -13.62,-128.33 -13.62,-157.91 0,-11.28 3.83,-19.79 11.49,-25.54 7.66,-5.74 19.37,-8.72 34.69,-8.72 48.31,0 81.72,2.98 100.24,8.72 18.51,5.74 27.88,15.96 27.88,30.65 0,3.19 -0.64,10.22 -1.7,20.85 -1.07,10.64 -1.49,19.37 -1.49,26.39 0,62.78 3.62,120.67 10.85,173.66 7.24,52.99 14.47,79.59 21.5,79.59 8.3,0 18.94,-41.07 31.71,-123.43 12.98,-82.15 27.03,-154.5 42.35,-216.85 1.7,-5.74 4.04,-13.41 7.02,-22.98 8.3,-29.58 28.31,-44.27 60.23,-44.27 10,0 24.26,6.6 42.56,20 8.94,6.6 16.17,11.49 21.07,14.9 4.04,2.55 9.58,5.11 16.17,8.08 17.45,8.3 26.18,22.77 26.18,42.99 0,2.13 -7.88,34.9 -23.62,98.53 -15.96,63.63 -33.84,134.07 -54.27,211.32 -15.75,60.65 -31.28,122.58 -46.18,185.79 -3.4,13.62 -5.32,21.92 -6.17,24.9 -0.43,1.28 -0.85,2.98 -1.27,4.9 -14.26,49.59 -42.99,74.27 -86.62,74.27zm413.7 -223.45c-0.85,3.41 -1.27,12.77 -1.27,28.09 0,17.02 2.98,29.37 8.94,37.03 6.17,7.66 15.75,11.49 29.15,11.49 24.9,0 52.14,-17.66 81.72,-52.78 7.88,-9.15 12.56,-13.62 14.26,-13.62 13.41,0 32.35,6.81 57.03,20.22 24.68,13.62 37.24,23.41 37.24,29.58 0,10.85 -8.08,28.52 -23.83,52.99 -15.75,24.47 -33.84,45.97 -54.06,64.27 -14.68,13.62 -31.92,24.48 -52.14,32.14 -20.22,7.66 -40.65,11.49 -61.29,11.49 -14.04,0 -30.22,-4.04 -48.31,-12.13 -18.09,-8.09 -44.9,-24.05 -80.65,-47.67 -26.18,-17.45 -45.76,-42.78 -58.53,-75.76 -12.98,-33.2 -19.37,-74.7 -19.37,-125.13 0,-44.9 4.68,-90.23 14.05,-136.2 9.36,-45.97 22.13,-87.25 38.3,-123.85l5.54 -12.34c32.35,-71.93 63.84,-107.9 94.06,-107.9 1.28,0 5.96,1.07 13.83,3.19 29.37,7.88 60.86,14.05 94.06,18.52 19.37,2.98 35.76,8.72 49.16,17.03 13.19,8.3 28.3,22.13 44.9,41.71 18.3,21.49 32.35,55.33 42.35,101.3 10,45.97 14.9,100.66 14.9,164.08 0,22.13 -27.45,36.6 -82.36,43.62 -60.65,7.66 -113.22,17.66 -157.7,30.65zm3.62 -109.81c14.69,-2.13 27.45,-4.68 38.52,-7.45 11.06,-2.98 21.28,-6.6 30.86,-10.64 2.13,-2.98 3.83,-7.66 5.32,-13.83 1.49,-6.17 2.13,-13.41 2.13,-21.28 0,-7.02 -0.43,-16.17 -1.28,-27.24 -0.85,-11.07 -1.27,-18.73 -1.27,-22.77 0,-12.13 -2.34,-25.11 -7.02,-38.52 -4.9,-13.62 -10.22,-20.43 -15.96,-20.43 -8.3,0 -18.09,16.39 -28.95,49.38 -11.06,32.99 -18.51,70.65 -22.34,112.79zm447.33 333.26c-14.47,0 -32.99,-3.19 -55.33,-9.36 -22.56,-6.17 -36.39,-11.7 -41.71,-16.17 -10,-8.72 -17.24,-18.73 -21.49,-30.01 -4.47,-11.28 -6.6,-28.52 -6.6,-51.71l0 -69.8c0,-58.74 0.85,-118.11 2.77,-178.12 1.91,-60.01 2.77,-91.51 2.77,-94.49 0,-11.71 -0.64,-24.9 -2.13,-40.01 -1.49,-14.9 -2.13,-24.05 -2.13,-27.45l0 -12.98c0,-5.74 -1.06,-11.49 -3.19,-17.24 -2.13,-5.53 -2.98,-8.72 -2.98,-9.58 0,-6.6 8.94,-13.83 27.03,-21.49 18.09,-7.66 33.41,-11.49 45.75,-11.49 7.45,0 16.6,3.19 27.45,9.58 10.85,6.6 17.45,9.79 20,9.79 3.62,0 10.85,-13.62 21.07,-41.07 10.43,-27.24 23.84,-40.86 40.01,-40.86 49.8,0 85.76,10.64 107.47,31.92 21.92,21.07 32.77,57.25 32.77,108.54l0 18.09c0,53.2 -5.11,86.19 -15.33,99.17 -10.22,12.98 -29.58,19.37 -58.31,19.37 -7.45,0 -16.81,-10.22 -28.09,-30.65 -11.28,-20.43 -19.37,-30.64 -24.26,-30.64 -4.26,0 -7.45,2.34 -9.79,7.23 -2.34,4.68 -3.41,11.71 -3.41,20.86l0 23.2 0 112.15 0 101.09 0 51.07c0,20 1.07,41.92 3.19,65.55 0.43,5.53 0.64,9.15 0.64,11.28 0,19.58 -3.41,31.71 -10,36.82 -6.6,4.89 -22.14,7.45 -46.18,7.45zm447.97 -2.55c-53.2,0 -101.51,-15.53 -145.14,-46.39 -43.62,-30.86 -65.55,-62.57 -65.55,-94.91 0,-6.38 8.73,-18.09 26.39,-35.54 17.45,-17.45 29.58,-26.18 36.18,-26.18 5.96,0 13.19,3.41 21.71,10.22 8.51,6.81 12.77,11.06 12.77,12.77 0,2.34 10.43,10 30.86,22.98 20.43,12.77 35.76,19.15 45.76,19.15 5.32,0 9.79,-2.77 13.62,-8.3 3.62,-5.74 5.54,-12.56 5.54,-20.85 0,-8.3 -4.26,-16.81 -12.77,-25.33 -8.51,-8.3 -29.58,-23.41 -63.63,-44.9 -38.52,-25.32 -64.06,-49.16 -76.4,-71.5 -12.13,-22.14 -18.3,-51.29 -18.3,-87.04 0,-59.37 17.23,-114.92 51.71,-166.42 34.48,-51.72 68.31,-77.47 101.51,-77.47 7.45,0 18.09,2.55 31.71,7.45 3.83,1.27 6.17,2.13 7.45,2.55 5.32,1.7 19.79,4.68 43.2,8.94 23.62,4.47 42.78,10.85 57.67,19.15 20.43,11.92 35.33,32.56 44.9,61.51 9.58,28.73 14.26,67.67 14.26,116.2 0,26.18 -2.13,42.35 -6.6,48.31 -4.26,6.17 -16.17,9.15 -35.75,9.15 -31.5,0 -53.42,-3.19 -65.55,-9.79 -11.92,-6.38 -19.37,-21.71 -22.35,-45.97 0,-30.86 -1.7,-49.8 -5.32,-57.25 -3.41,-7.23 -9.79,-10.85 -18.94,-10.85 -10.64,0 -20.22,7.24 -28.52,21.49 -8.3,14.47 -12.34,28.94 -12.34,43.63 0,14.05 5.74,28.09 17.03,41.71 11.49,13.83 35.96,34.05 73.63,60.65 39.58,27.88 67.03,53.2 82.57,75.76 15.53,22.56 23.41,47.67 23.41,75.12 0,39.37 -20,77.89 -60.22,115.56 -40.01,37.67 -74.91,56.4 -104.49,56.4zm397.32 -220.9c-0.85,3.41 -1.27,12.77 -1.27,28.09 0,17.02 2.98,29.37 8.94,37.03 6.17,7.66 15.75,11.49 29.15,11.49 24.9,0 52.14,-17.66 81.72,-52.78 7.88,-9.15 12.56,-13.62 14.26,-13.62 13.41,0 32.35,6.81 57.03,20.22 24.68,13.62 37.24,23.41 37.24,29.58 0,10.85 -8.08,28.52 -23.83,52.99 -15.75,24.47 -33.84,45.97 -54.06,64.27 -14.68,13.62 -31.92,24.48 -52.14,32.14 -20.22,7.66 -40.65,11.49 -61.29,11.49 -14.04,0 -30.22,-4.04 -48.31,-12.13 -18.09,-8.09 -44.9,-24.05 -80.65,-47.67 -26.18,-17.45 -45.76,-42.78 -58.53,-75.76 -12.98,-33.2 -19.37,-74.7 -19.37,-125.13 0,-44.9 4.68,-90.23 14.05,-136.2 9.36,-45.97 22.13,-87.25 38.3,-123.85l5.54 -12.34c32.35,-71.93 63.84,-107.9 94.06,-107.9 1.28,0 5.96,1.07 13.83,3.19 29.37,7.88 60.86,14.05 94.06,18.52 19.37,2.98 35.76,8.72 49.16,17.03 13.19,8.3 28.3,22.13 44.9,41.71 18.3,21.49 32.35,55.33 42.35,101.3 10,45.97 14.9,100.66 14.9,164.08 0,22.13 -27.45,36.6 -82.36,43.62 -60.65,7.66 -113.22,17.66 -157.7,30.65zm3.62 -109.81c14.69,-2.13 27.45,-4.68 38.52,-7.45 11.06,-2.98 21.28,-6.6 30.86,-10.64 2.13,-2.98 3.83,-7.66 5.32,-13.83 1.49,-6.17 2.13,-13.41 2.13,-21.28 0,-7.02 -0.43,-16.17 -1.28,-27.24 -0.85,-11.07 -1.27,-18.73 -1.27,-22.77 0,-12.13 -2.34,-25.11 -7.02,-38.52 -4.9,-13.62 -10.22,-20.43 -15.96,-20.43 -8.3,0 -18.09,16.39 -28.95,49.38 -11.06,32.99 -18.51,70.65 -22.34,112.79z"/>
 </g>
</svg>
