<?xml version="1.0" encoding="UTF-8"?>
<!DOCTYPE svg PUBLIC "-//W3C//DTD SVG 1.1//EN" "http://www.w3.org/Graphics/SVG/1.1/DTD/svg11.dtd">
<!-- Creator: CorelDRAW 2019 (64-Bit) -->
<svg xmlns="http://www.w3.org/2000/svg" xml:space="preserve" width="39.1032mm" height="51.4137mm" version="1.1" style="shape-rendering:geometricPrecision; text-rendering:geometricPrecision; image-rendering:optimizeQuality; fill-rule:evenodd; clip-rule:evenodd"
viewBox="0 0 419.06 550.99"
 xmlns:xlink="http://www.w3.org/1999/xlink">
 <defs>
  <style type="text/css">
   <![CDATA[
    .str0 {stroke:#FEFEFE;stroke-width:18.9;stroke-miterlimit:22.9256}
    .fil2 {fill:none}
    .fil0 {fill:#FEFEFE}
    .fil1 {fill:#FFF212}
   ]]>
  </style>
 </defs>
 <g id="Capa_x0020_1">
  <metadata id="CorelCorpID_0Corel-Layer"/>
  <g id="_2553897007424">
   <path class="fil0" d="M367.44 515.98l1.25 -0.66c-5.64,7.55 6.91,5.26 -10.89,6.8 -38.87,0 -282.86,4.18 -298.25,-3.04 -10.02,-8.79 -5.43,-225.58 -4.34,-253.56l316.99 0.48 -0.12 241.68c-2.11,8.7 -0.35,3.36 -4.64,8.3zm-323.95 -278.96c-13.04,-2.12 -9.56,-0.98 -12.02,-12.84 7.14,-5.28 -8.58,-2.25 12.31,-5.66l306.45 0.19c7.32,-0.01 15.68,-0.47 22.78,-0.32 17.08,0.37 10.71,0.47 18.25,5.52 -3.27,16.27 8.04,12.19 -14.23,13.28l-333.55 -0.17zm163.06 -91.11c30.43,4.32 44.95,25.06 57.57,30.59 12.68,5.38 6.84,-11.43 10.48,17.42 -29.85,11.2 -118.49,3.78 -158.77,3.78l-18.89 -11.3c-2.32,10.66 5.36,-2.24 -8.67,4.79 -0.54,0.27 -2.01,1.72 -2.7,2.78l-3.44 -3.03c-15.69,0.82 -67.63,-4.32 -76.83,6.01 -7.3,13.41 -6.53,45.62 -0.99,63.13 5.63,3.13 11.75,4.47 21.43,5.6 11.51,323.5 -59.78,283.77 184.6,283.77 39.07,0 78.13,-0.01 117.2,0 42.04,0.01 73.55,3.58 74.98,-41.52l-0.3 -242.75 16.83 -0.17 -0.15 -67.31c-13.41,0 -65.43,2.34 -53.58,-7.52 -16.93,5.69 -25.96,7.69 -45.33,7.7 -28.16,0.02 -25.46,5.78 -30.25,-18.22 -1.09,-12.08 -12.48,-21.84 -22.87,-30.97 -10.44,-9.18 -21.05,-16.59 -34.28,-17.11 -18.52,2.98 -9.95,0.31 -26.07,-3.37 -23.26,-5.31 -15.36,-0.77 -22.65,5.23 1.07,0.79 2.33,1.69 3.33,2.2l19.32 10.27z"/>
   <path class="fil0" d="M207.56 27.46c9.43,11.23 23.97,21.44 16.35,43.98 -4.29,12.7 -18.12,23.9 -36.27,23.44 -17.69,-0.44 -31.22,-12.18 -34.05,-25.89 -5.21,-25.15 7.24,-30.24 17.41,-42.97l36.56 1.44zm-57.69 80.19c5.36,1.61 11.59,1.71 17.26,5.33 8.09,5.18 3.03,1.06 6.82,10.96l-20.36 3.46c-16.91,2.03 -30.93,11.52 -43.96,22.78l-24.42 29.16c-0.37,0.63 -1.13,1.5 -1.43,2.12l-1.64 9.46 3.44 3.03c0.69,-1.06 2.16,-2.51 2.7,-2.78 14.03,-7.03 6.35,5.87 8.67,-4.79l18.89 11.3c40.28,0 128.92,7.42 158.77,-3.78 -3.64,-28.84 2.2,-12.03 -10.48,-17.42l1.11 14.37 -151.42 0.17c2.74,-16.56 11.4,-24.91 30.97,-35.53 19.41,-10.53 38.06,-10.5 61.76,-9.59l-19.32 -10.27c-0.99,-0.51 -2.26,-1.41 -3.33,-2.2 7.28,-6 -0.61,-10.54 22.65,-5.23 16.12,3.68 7.55,6.35 26.07,3.37 -9.13,-8.43 -19.21,-8.04 -20.3,-11.38 -0.38,-1.15 -1.39,-1.27 -2.1,-1.88 10.04,-8.17 22.88,-12.13 33.56,-30.6 9.14,-15.82 8.06,-34.98 3.23,-52.55 -13.4,-14.51 -10.89,-21.28 -36.09,-31.3 -47.39,-18.85 -122.4,33.61 -61.04,103.78z"/>
   <path class="fil1" d="M31.47 224.19c2.46,11.85 -1.03,10.72 12.02,12.84l350.1 -0.02 -0.02 -18.41 -20.55 -0.2c-7.11,-0.15 -15.46,0.3 -22.78,0.32l-306.45 -0.19c-20.89,3.41 -5.17,0.38 -12.31,5.66z"/>
   <path class="fil0" d="M305.05 103.21c-12.36,3.11 -26.46,-5.46 -19.71,-18.71 4.04,-2.46 -0.53,-3.64 7.75,-3.25 20.58,0.96 11.95,21.96 11.95,21.97zm-33.51 -32.26c-14.08,8.88 -6.09,31.96 2.61,39.96 14.85,13.65 21.43,10.72 42.06,9.34 33.2,21.81 39.53,22.5 34.93,70.59 -51.87,0.06 -40.81,4.57 -61.38,-11.17 4.78,24.01 2.08,18.24 30.25,18.22 19.37,-0.01 28.4,-2.01 45.33,-7.7 -11.86,9.87 40.17,7.52 53.58,7.52 -7.02,-7.94 14.16,-6.8 -46.02,-7.31 -3.32,-25.82 2.47,-35 -9.64,-55.06 -9.85,-16.32 -24.21,-16.6 -33.74,-30.26 -6.23,-17.24 -3.81,-26.79 -20.28,-36.42 -14.04,-8.21 -24.46,-9.01 -37.7,2.29z"/>
   <rect class="fil2 str0" x="99.28" y="292.83" width="212.66" height="46.79"/>
  </g>
 </g>
</svg>
